<?xml version="1.0" encoding="UTF-8"?>
<!-- Generator: Adobe Illustrator 16.2.0, SVG Export Plug-In . SVG Version: 6.00 Build 0)  -->
<!DOCTYPE svg PUBLIC "-//W3C//DTD SVG 1.1//EN" "http://www.w3.org/Graphics/SVG/1.1/DTD/svg11.dtd">
<svg version="1.1" id="Layer_1" xmlns="http://www.w3.org/2000/svg" xmlns:xlink="http://www.w3.org/1999/xlink" x="0px" y="0px" width="785.5px" height="118px" viewBox="0 0 785.5 118" enable-background="new 0 0 785.5 118" xml:space="preserve">
<g>
	<path fill="#043754" d="M35.594,38.987v41.908h16.549c8.627,0,14.843-1.662,18.539-4.924c3.755-3.268,5.621-8.611,5.621-16.07   c0-7.384-1.874-12.729-5.671-15.997c-3.777-3.268-9.956-4.924-18.489-4.924H35.594V38.987z M2.299,17.681h55.065   c17.806,0,31.415,3.646,40.732,11.031c9.367,7.334,14.036,18.024,14.036,32.082c0,14.008-4.676,24.677-13.971,31.988   c-9.302,7.291-22.846,10.966-40.804,10.966H2.299V17.681z M163.546,74.12h21.298l-10.311-30.267L163.546,74.12z M116.94,103.732   l37.216-85.957h42.249l34.755,85.957h-36.055l-2.876-8.444h-36.562l-3.087,8.444H116.94z M259.975,103.732V39.59h-31.036V17.783   h95.542v21.814h-31.189v64.143h-33.317V103.732L259.975,103.732z M366.569,74.12h21.343l-10.363-30.267L366.569,74.12z    M319.979,103.732l37.224-85.957h42.263l34.77,85.957h-36.12l-2.817-8.444h-36.563l-3.094,8.444H319.979z"/>
	<path fill="#043754" d="M622.619,39.59h-18.548v15.33h19.39c5.054,0,8.664-0.603,10.74-1.801c2.063-1.228,3.106-3.232,3.106-6.049   c0-2.782-0.965-4.728-2.919-5.853C632.393,40.156,628.479,39.59,622.619,39.59"/>
	<polygon fill="#043754" points="497.761,74.12 519.066,74.12 508.719,43.853  "/>
	<path fill="#043754" d="M442.84,114.4h338.645V8.48H442.84V114.4z M529.269,103.732l-2.823-8.444H489.91l-3.086,8.444h-35.67   l37.23-85.957h42.221l34.77,85.957H529.269z M675.229,103.732h-37.005c-1.133-1.836-1.742-5.352-1.896-10.58   c-0.035-3.078-0.182-5.418-0.393-7.094c-0.341-3.16-1.364-5.354-3.166-6.623c-1.742-1.285-4.727-1.902-8.845-1.902h-19.868v26.193   H570.29V17.783h65.421c7.493,0,13.471,0.378,17.966,1.082c4.517,0.712,7.974,1.837,10.516,3.348   c3.202,1.88,5.648,4.429,7.349,7.654c1.691,3.202,2.534,6.847,2.534,11.066c0,5.062-1.271,9.528-3.783,13.362   c-2.498,3.878-5.983,6.659-10.385,8.38c3.763,1.554,6.456,3.521,7.98,5.875c1.511,2.31,2.403,6.507,2.673,12.396   c0.058,0.683,0.108,1.576,0.131,2.717c0.552,11.271,2.068,17.5,4.538,18.706L675.229,103.732L675.229,103.732z M773.46,39.59   h-31.183v64.143h-33.311V39.59h-31.043V17.783h95.535L773.46,39.59L773.46,39.59z"/>
</g>
</svg>