<svg xmlns="http://www.w3.org/2000/svg" width="1920" height="1080"><path d="M550,1479L-96,1458L822,1496Z" fill="#8d6977" stroke="#8d6977" stroke-width="1.51"/><path d="M158,-322L594,-330L1020,-374Z" fill="#c36e62" stroke="#c36e62" stroke-width="1.51"/><path d="M-281,-294L158,-322L1381,-412Z" fill="#bd5b4e" stroke="#bd5b4e" stroke-width="1.51"/><path d="M158,-322L1020,-374L1381,-412Z" fill="#c17f7c" stroke="#c17f7c" stroke-width="1.51"/><path d="M1581,1427L1240,1443L2017,1478Z" fill="#4173a3" stroke="#4173a3" stroke-width="1.51"/><path d="M1240,1443L822,1496L2017,1478Z" fill="#6381a8" stroke="#6381a8" stroke-width="1.51"/><path d="M1959,335L2066,591L2140,221Z" fill="#9999b5" stroke="#9999b5" stroke-width="1.51"/><path d="M2125,-51L2082,50L2140,221Z" fill="#93697c" stroke="#93697c" stroke-width="1.51"/><path d="M1877,1048L1895,1154L2181,918Z" fill="#4986be" stroke="#4986be" stroke-width="1.51"/><path d="M1381,-412L1614,-381L2188,-387Z" fill="#78566d" stroke="#78566d" stroke-width="1.51"/><path d="M1614,-381L2028,-256L2188,-387Z" fill="#784767" stroke="#784767" stroke-width="1.51"/><path d="M2028,-256L2125,-51L2188,-387Z" fill="#803d59" stroke="#803d59" stroke-width="1.51"/><path d="M2125,-51L2140,221L2188,-387Z" fill="#874e64" stroke="#874e64" stroke-width="1.51"/><path d="M2066,591L1873,657L2190,858Z" fill="#849ec7" stroke="#849ec7" stroke-width="1.51"/><path d="M2140,221L2066,591L2190,858Z" fill="#8c99bb" stroke="#8c99bb" stroke-width="1.51"/><path d="M2188,-387L2140,221L2190,858Z" fill="#92798b" stroke="#92798b" stroke-width="1.51"/><path d="M1895,1154L2185,1339L2201,1260Z" fill="#2362a1" stroke="#2362a1" stroke-width="1.51"/><path d="M2181,918L1895,1154L2201,1260Z" fill="#3272a9" stroke="#3272a9" stroke-width="1.51"/><path d="M2190,858L2181,918L2201,1260Z" fill="#4473a1" stroke="#4473a1" stroke-width="1.51"/><path d="M1895,1154L2017,1478L2185,1339Z" fill="#1f60a4" stroke="#1f60a4" stroke-width="1.51"/><path d="M1877,1048L2181,918L2190,858Z" fill="#5987b6" stroke="#5987b6" stroke-width="1.51"/><path d="M1811,711L1877,1048L2190,858Z" fill="#6d9bc9" stroke="#6d9bc9" stroke-width="1.51"/><path d="M1873,657L1811,711L2190,858Z" fill="#84a6cf" stroke="#84a6cf" stroke-width="1.51"/><path d="M2082,50L1968,41L2140,221Z" fill="#997487" stroke="#997487" stroke-width="1.51"/><path d="M1968,41L1959,335L2140,221Z" fill="#9f879c" stroke="#9f879c" stroke-width="1.51"/><path d="M2028,-256L1847,-149L2125,-51Z" fill="#915571" stroke="#915571" stroke-width="1.51"/><path d="M1847,-149L1968,41L2125,-51Z" fill="#99647c" stroke="#99647c" stroke-width="1.51"/><path d="M1968,41L2082,50L2125,-51Z" fill="#95667b" stroke="#95667b" stroke-width="1.51"/><path d="M1959,335L1828,523L2066,591Z" fill="#9dabcd" stroke="#9dabcd" stroke-width="1.51"/><path d="M1828,523L1873,657L2066,591Z" fill="#97afd4" stroke="#97afd4" stroke-width="1.51"/><path d="M1847,-149L1811,-41L1968,41Z" fill="#9e6e80" stroke="#9e6e80" stroke-width="1.51"/><path d="M1895,1154L1666,1295L2017,1478Z" fill="#2c72b3" stroke="#2c72b3" stroke-width="1.51"/><path d="M1614,-381L1847,-149L2028,-256Z" fill="#8e586e" stroke="#8e586e" stroke-width="1.51"/><path d="M1607,112L1959,335L1968,41Z" fill="#aa93a0" stroke="#aa93a0" stroke-width="1.51"/><path d="M1666,1295L1581,1427L2017,1478Z" fill="#2d6da5" stroke="#2d6da5" stroke-width="1.51"/><path d="M1811,711L1695,1037L1877,1048Z" fill="#6aa5ce" stroke="#6aa5ce" stroke-width="1.51"/><path d="M1607,112L1695,395L1959,335Z" fill="#adacb9" stroke="#adacb9" stroke-width="1.51"/><path d="M1695,395L1828,523L1959,335Z" fill="#a5b2cb" stroke="#a5b2cb" stroke-width="1.51"/><path d="M1811,-41L1607,112L1968,41Z" fill="#a78490" stroke="#a78490" stroke-width="1.51"/><path d="M1614,-381L1585,-292L1847,-149Z" fill="#976474" stroke="#976474" stroke-width="1.51"/><path d="M1877,1048L1695,1037L1895,1154Z" fill="#4890c2" stroke="#4890c2" stroke-width="1.51"/><path d="M1695,1037L1667,1079L1895,1154Z" fill="#4a95c4" stroke="#4a95c4" stroke-width="1.51"/><path d="M1667,1079L1666,1295L1895,1154Z" fill="#3f8bbf" stroke="#3f8bbf" stroke-width="1.51"/><path d="M1526,875L1695,1037L1811,711Z" fill="#80b6d6" stroke="#80b6d6" stroke-width="1.51"/><path d="M1828,523L1811,711L1873,657Z" fill="#96b6d7" stroke="#96b6d7" stroke-width="1.51"/><path d="M1668,475L1811,711L1828,523Z" fill="#a0bfdb" stroke="#a0bfdb" stroke-width="1.51"/><path d="M1695,395L1668,475L1828,523Z" fill="#a9bfd4" stroke="#a9bfd4" stroke-width="1.51"/><path d="M1585,-292L1811,-41L1847,-149Z" fill="#9e6c7a" stroke="#9e6c7a" stroke-width="1.51"/><path d="M1668,475L1448,633L1811,711Z" fill="#aacae1" stroke="#aacae1" stroke-width="1.51"/><path d="M1448,633L1488,779L1811,711Z" fill="#a7cbe2" stroke="#a7cbe2" stroke-width="1.51"/><path d="M1488,779L1526,875L1811,711Z" fill="#98c3de" stroke="#98c3de" stroke-width="1.51"/><path d="M1469,-179L1607,112L1811,-41Z" fill="#b3888d" stroke="#b3888d" stroke-width="1.51"/><path d="M1585,-292L1469,-179L1811,-41Z" fill="#aa757f" stroke="#aa757f" stroke-width="1.51"/><path d="M1469,-179L1405,50L1607,112Z" fill="#c49997" stroke="#c49997" stroke-width="1.51"/><path d="M1494,1171L1666,1295L1667,1079Z" fill="#5597c6" stroke="#5597c6" stroke-width="1.51"/><path d="M1526,875L1667,1079L1695,1037Z" fill="#6fadd1" stroke="#6fadd1" stroke-width="1.51"/><path d="M1447,220L1668,475L1695,395Z" fill="#bcc4ce" stroke="#bcc4ce" stroke-width="1.51"/><path d="M1607,112L1447,220L1695,395Z" fill="#c0b7ba" stroke="#c0b7ba" stroke-width="1.51"/><path d="M1526,875L1494,1171L1667,1079Z" fill="#71add2" stroke="#71add2" stroke-width="1.51"/><path d="M1337,395L1448,633L1668,475Z" fill="#c7dae5" stroke="#c7dae5" stroke-width="1.51"/><path d="M1447,220L1337,395L1668,475Z" fill="#cbd0d4" stroke="#cbd0d4" stroke-width="1.51"/><path d="M1494,1171L1581,1427L1666,1295Z" fill="#528cc1" stroke="#528cc1" stroke-width="1.51"/><path d="M1381,-412L1585,-292L1614,-381Z" fill="#956b78" stroke="#956b78" stroke-width="1.51"/><path d="M1286,1032L1494,1171L1526,875Z" fill="#85bad9" stroke="#85bad9" stroke-width="1.51"/><path d="M1405,50L1447,220L1607,112Z" fill="#cbb0ac" stroke="#cbb0ac" stroke-width="1.51"/><path d="M1494,1171L1240,1443L1581,1427Z" fill="#6491c0" stroke="#6491c0" stroke-width="1.51"/><path d="M1381,-412L1469,-179L1585,-292Z" fill="#a9757d" stroke="#a9757d" stroke-width="1.51"/><path d="M1281,1108L1240,1443L1494,1171Z" fill="#79a5cf" stroke="#79a5cf" stroke-width="1.51"/><path d="M1286,1032L1281,1108L1494,1171Z" fill="#82b5d6" stroke="#82b5d6" stroke-width="1.51"/><path d="M1488,779L1286,1032L1526,875Z" fill="#9dcae1" stroke="#9dcae1" stroke-width="1.51"/><path d="M1337,395L1263,451L1448,633Z" fill="#d7e2e9" stroke="#d7e2e9" stroke-width="1.51"/><path d="M1242,-8L1405,50L1469,-179Z" fill="#ce9a96" stroke="#ce9a96" stroke-width="1.51"/><path d="M1197,719L1286,1032L1488,779Z" fill="#b3d5e7" stroke="#b3d5e7" stroke-width="1.51"/><path d="M1448,633L1197,719L1488,779Z" fill="#c1dceb" stroke="#c1dceb" stroke-width="1.51"/><path d="M1405,50L1284,191L1447,220Z" fill="#d7bcb3" stroke="#d7bcb3" stroke-width="1.51"/><path d="M1381,-412L1242,-8L1469,-179Z" fill="#c48586" stroke="#c48586" stroke-width="1.51"/><path d="M1020,-374L1242,-8L1381,-412Z" fill="#ca8686" stroke="#ca8686" stroke-width="1.51"/><path d="M1284,191L1337,395L1447,220Z" fill="#dacdc8" stroke="#dacdc8" stroke-width="1.51"/><path d="M1263,451L1162,584L1448,633Z" fill="#dae9f1" stroke="#dae9f1" stroke-width="1.51"/><path d="M1162,584L1197,719L1448,633Z" fill="#d4e6f0" stroke="#d4e6f0" stroke-width="1.51"/><path d="M230,1425L-96,1458L550,1479Z" fill="#885567" stroke="#885567" stroke-width="1.51"/><path d="M1020,-374L1168,-6L1242,-8Z" fill="#dc9a93" stroke="#dc9a93" stroke-width="1.51"/><path d="M1242,-8L1284,191L1405,50Z" fill="#dbb3aa" stroke="#dbb3aa" stroke-width="1.51"/><path d="M1076,1357L1240,1443L1281,1108Z" fill="#86a5cf" stroke="#86a5cf" stroke-width="1.51"/><path d="M1020,-374L944,-258L1168,-6Z" fill="#dc918c" stroke="#dc918c" stroke-width="1.51"/><path d="M1090,259L1263,451L1284,191Z" fill="#eadad3" stroke="#eadad3" stroke-width="1.51"/><path d="M1197,719L1144,1043L1286,1032Z" fill="#b2d5e7" stroke="#b2d5e7" stroke-width="1.51"/><path d="M1284,191L1263,451L1337,395Z" fill="#e0dbd9" stroke="#e0dbd9" stroke-width="1.51"/><path d="M944,-258L945,-100L1168,-6Z" fill="#e49f95" stroke="#e49f95" stroke-width="1.51"/><path d="M1162,584L1157,697L1197,719Z" fill="#dbe9f2" stroke="#dbe9f2" stroke-width="1.51"/><path d="M1076,1357L822,1496L1240,1443Z" fill="#8595b8" stroke="#8595b8" stroke-width="1.51"/><path d="M1168,-6L1120,94L1242,-8Z" fill="#e4b1a6" stroke="#e4b1a6" stroke-width="1.51"/><path d="M1144,1043L1076,1357L1281,1108Z" fill="#92b7d7" stroke="#92b7d7" stroke-width="1.51"/><path d="M1242,-8L1120,94L1284,191Z" fill="#e5bbaf" stroke="#e5bbaf" stroke-width="1.51"/><path d="M1144,1043L1281,1108L1286,1032Z" fill="#99c2dd" stroke="#99c2dd" stroke-width="1.51"/><path d="M1120,94L1090,259L1284,191Z" fill="#eccbbe" stroke="#eccbbe" stroke-width="1.51"/><path d="M965,1125L1076,1357L1144,1043Z" fill="#9ab9d9" stroke="#9ab9d9" stroke-width="1.51"/><path d="M1157,697L912,900L1197,719Z" fill="#d5e6f0" stroke="#d5e6f0" stroke-width="1.51"/><path d="M912,900L1144,1043L1197,719Z" fill="#c3ddeb" stroke="#c3ddeb" stroke-width="1.51"/><path d="M1090,259L1162,584L1263,451Z" fill="#eae8e7" stroke="#eae8e7" stroke-width="1.51"/><path d="M1090,259L785,382L1162,584Z" fill="#f6ece6" stroke="#f6ece6" stroke-width="1.51"/><path d="M785,382L765,462L1162,584Z" fill="#faefe9" stroke="#faefe9" stroke-width="1.51"/><path d="M945,-100L1120,94L1168,-6Z" fill="#e9afa3" stroke="#e9afa3" stroke-width="1.51"/><path d="M777,773L1157,697L1162,584Z" fill="#e4eef4" stroke="#e4eef4" stroke-width="1.51"/><path d="M765,462L777,773L1162,584Z" fill="#f2f1f1" stroke="#f2f1f1" stroke-width="1.51"/><path d="M777,773L912,900L1157,697Z" fill="#dbe9f0" stroke="#dbe9f0" stroke-width="1.51"/><path d="M912,900L965,1125L1144,1043Z" fill="#b2cfe4" stroke="#b2cfe4" stroke-width="1.51"/><path d="M795,82L1090,259L1120,94Z" fill="#f6cbba" stroke="#f6cbba" stroke-width="1.51"/><path d="M945,-100L795,82L1120,94Z" fill="#f2b7a7" stroke="#f2b7a7" stroke-width="1.51"/><path d="M795,82L785,382L1090,259Z" fill="#fbd6c5" stroke="#fbd6c5" stroke-width="1.51"/><path d="M965,1125L757,1209L1076,1357Z" fill="#9fb4d4" stroke="#9fb4d4" stroke-width="1.51"/><path d="M757,1209L822,1496L1076,1357Z" fill="#96a1c3" stroke="#96a1c3" stroke-width="1.51"/><path d="M594,-330L944,-258L1020,-374Z" fill="#cc837e" stroke="#cc837e" stroke-width="1.51"/><path d="M158,-322L502,-301L594,-330Z" fill="#c25c4f" stroke="#c25c4f" stroke-width="1.51"/><path d="M594,-330L712,-190L944,-258Z" fill="#d98377" stroke="#d98377" stroke-width="1.51"/><path d="M944,-258L712,-190L945,-100Z" fill="#e39388" stroke="#e39388" stroke-width="1.51"/><path d="M912,900L757,1209L965,1125Z" fill="#afc5d9" stroke="#afc5d9" stroke-width="1.51"/><path d="M663,182L785,382L795,82Z" fill="#fbcbb3" stroke="#fbcbb3" stroke-width="1.51"/><path d="M573,1010L757,1209L912,900Z" fill="#b8c4cf" stroke="#b8c4cf" stroke-width="1.51"/><path d="M712,-190L795,82L945,-100Z" fill="#eca08f" stroke="#eca08f" stroke-width="1.51"/><path d="M765,462L613,592L777,773Z" fill="#f4e7df" stroke="#f4e7df" stroke-width="1.51"/><path d="M777,773L573,1010L912,900Z" fill="#d0d6d9" stroke="#d0d6d9" stroke-width="1.51"/><path d="M563,824L573,1010L777,773Z" fill="#d6cecc" stroke="#d6cecc" stroke-width="1.51"/><path d="M663,182L641,337L785,382Z" fill="#fdd4bd" stroke="#fdd4bd" stroke-width="1.51"/><path d="M757,1209L550,1479L822,1496Z" fill="#9792ab" stroke="#9792ab" stroke-width="1.51"/><path d="M425,-66L515,143L712,-190Z" fill="#e98f75" stroke="#e98f75" stroke-width="1.51"/><path d="M573,1010L534,1098L757,1209Z" fill="#b0b0bc" stroke="#b0b0bc" stroke-width="1.51"/><path d="M712,-190L515,143L795,82Z" fill="#f1a48c" stroke="#f1a48c" stroke-width="1.51"/><path d="M515,143L663,182L795,82Z" fill="#f8b89c" stroke="#f8b89c" stroke-width="1.51"/><path d="M471,1424L550,1479L757,1209Z" fill="#9a8aa0" stroke="#9a8aa0" stroke-width="1.51"/><path d="M613,592L563,824L777,773Z" fill="#e9dbd4" stroke="#e9dbd4" stroke-width="1.51"/><path d="M641,337L765,462L785,382Z" fill="#fde0cf" stroke="#fde0cf" stroke-width="1.51"/><path d="M516,763L563,824L613,592Z" fill="#e9d2c9" stroke="#e9d2c9" stroke-width="1.51"/><path d="M534,1098L416,1215L757,1209Z" fill="#aba2b1" stroke="#aba2b1" stroke-width="1.51"/><path d="M416,1215L471,1424L757,1209Z" fill="#a493a8" stroke="#a493a8" stroke-width="1.51"/><path d="M641,337L613,592L765,462Z" fill="#fce0d1" stroke="#fce0d1" stroke-width="1.51"/><path d="M594,-330L502,-301L712,-190Z" fill="#d27467" stroke="#d27467" stroke-width="1.51"/><path d="M502,-301L425,-66L712,-190Z" fill="#dd7966" stroke="#dd7966" stroke-width="1.51"/><path d="M330,442L613,592L641,337Z" fill="#fbd1bd" stroke="#fbd1bd" stroke-width="1.51"/><path d="M515,143L641,337L663,182Z" fill="#fabfa3" stroke="#fabfa3" stroke-width="1.51"/><path d="M515,143L373,249L641,337Z" fill="#f8b89a" stroke="#f8b89a" stroke-width="1.51"/><path d="M373,249L330,442L641,337Z" fill="#fac0a4" stroke="#fac0a4" stroke-width="1.51"/><path d="M471,1424L230,1425L550,1479Z" fill="#916d7d" stroke="#916d7d" stroke-width="1.51"/><path d="M330,442L516,763L613,592Z" fill="#f5cfc0" stroke="#f5cfc0" stroke-width="1.51"/><path d="M563,824L341,948L573,1010Z" fill="#cdbbb6" stroke="#cdbbb6" stroke-width="1.51"/><path d="M341,948L534,1098L573,1010Z" fill="#bfaeaf" stroke="#bfaeaf" stroke-width="1.51"/><path d="M330,442L216,758L516,763Z" fill="#ecbdaf" stroke="#ecbdaf" stroke-width="1.51"/><path d="M516,763L341,948L563,824Z" fill="#d9bfb8" stroke="#d9bfb8" stroke-width="1.51"/><path d="M285,1129L416,1215L534,1098Z" fill="#ad969e" stroke="#ad969e" stroke-width="1.51"/><path d="M341,948L285,1129L534,1098Z" fill="#b79ea1" stroke="#b79ea1" stroke-width="1.51"/><path d="M205,-111L425,-66L502,-301Z" fill="#d76955" stroke="#d76955" stroke-width="1.51"/><path d="M425,-66L373,249L515,143Z" fill="#f19d7b" stroke="#f19d7b" stroke-width="1.51"/><path d="M216,758L341,948L516,763Z" fill="#d9b3ab" stroke="#d9b3ab" stroke-width="1.51"/><path d="M158,-322L205,-111L502,-301Z" fill="#c95044" stroke="#c95044" stroke-width="1.51"/><path d="M220,461L216,758L330,442Z" fill="#f1b5a6" stroke="#f1b5a6" stroke-width="1.51"/><path d="M121,34L373,249L425,-66Z" fill="#e78568" stroke="#e78568" stroke-width="1.51"/><path d="M416,1215L230,1425L471,1424Z" fill="#9a7589" stroke="#9a7589" stroke-width="1.51"/><path d="M249,1067L285,1129L341,948Z" fill="#b59397" stroke="#b59397" stroke-width="1.51"/><path d="M285,1129L230,1425L416,1215Z" fill="#a17b8e" stroke="#a17b8e" stroke-width="1.51"/><path d="M205,-111L121,34L425,-66Z" fill="#da6853" stroke="#da6853" stroke-width="1.51"/><path d="M164,351L330,442L373,249Z" fill="#f3ac93" stroke="#f3ac93" stroke-width="1.51"/><path d="M121,34L164,351L373,249Z" fill="#ea8f74" stroke="#ea8f74" stroke-width="1.51"/><path d="M73,621L216,758L220,461Z" fill="#e8a79c" stroke="#e8a79c" stroke-width="1.51"/><path d="M164,351L220,461L330,442Z" fill="#f1aa96" stroke="#f1aa96" stroke-width="1.51"/><path d="M216,758L249,1067L341,948Z" fill="#c7a09c" stroke="#c7a09c" stroke-width="1.51"/><path d="M-281,-294L-6,-244L158,-322Z" fill="#a91b2b" stroke="#a91b2b" stroke-width="1.51"/><path d="M121,34L41,58L164,351Z" fill="#e07a60" stroke="#e07a60" stroke-width="1.51"/><path d="M216,758L-20,885L249,1067Z" fill="#c59391" stroke="#c59391" stroke-width="1.51"/><path d="M249,1067L-31,1130L285,1129Z" fill="#a87d87" stroke="#a87d87" stroke-width="1.51"/><path d="M-31,1130L230,1425L285,1129Z" fill="#9e6d80" stroke="#9e6d80" stroke-width="1.51"/><path d="M158,-322L56,-207L205,-111Z" fill="#c33e3a" stroke="#c33e3a" stroke-width="1.51"/><path d="M-31,1130L-96,1458L230,1425Z" fill="#8e526d" stroke="#8e526d" stroke-width="1.51"/><path d="M-20,885L-31,1130L249,1067Z" fill="#af7c84" stroke="#af7c84" stroke-width="1.51"/><path d="M164,351L73,621L220,461Z" fill="#eca494" stroke="#eca494" stroke-width="1.51"/><path d="M73,621L-20,885L216,758Z" fill="#d69893" stroke="#d69893" stroke-width="1.51"/><path d="M-84,378L73,621L164,351Z" fill="#e6978a" stroke="#e6978a" stroke-width="1.51"/><path d="M41,58L-84,378L164,351Z" fill="#e1836f" stroke="#e1836f" stroke-width="1.51"/><path d="M56,-207L121,34L205,-111Z" fill="#cd5144" stroke="#cd5144" stroke-width="1.51"/><path d="M-91,802L-20,885L73,621Z" fill="#cf8c8a" stroke="#cf8c8a" stroke-width="1.51"/><path d="M56,-207L41,58L121,34Z" fill="#ce5346" stroke="#ce5346" stroke-width="1.51"/><path d="M-6,-244L56,-207L158,-322Z" fill="#b72f33" stroke="#b72f33" stroke-width="1.51"/><path d="M-124,-86L41,58L56,-207Z" fill="#c5433c" stroke="#c5433c" stroke-width="1.51"/><path d="M-218,1251L-96,1458L-31,1130Z" fill="#874d6a" stroke="#874d6a" stroke-width="1.51"/><path d="M-191,84L-84,378L41,58Z" fill="#d56958" stroke="#d56958" stroke-width="1.51"/><path d="M-6,-244L-124,-86L56,-207Z" fill="#bb2e32" stroke="#bb2e32" stroke-width="1.51"/><path d="M-84,378L-221,624L73,621Z" fill="#df908a" stroke="#df908a" stroke-width="1.51"/><path d="M-221,624L-91,802L73,621Z" fill="#d38a88" stroke="#d38a88" stroke-width="1.51"/><path d="M-142,900L-31,1130L-20,885Z" fill="#b0757d" stroke="#b0757d" stroke-width="1.51"/><path d="M-124,-86L-191,84L41,58Z" fill="#c74c43" stroke="#c74c43" stroke-width="1.51"/><path d="M-281,-294L-124,-86L-6,-244Z" fill="#aa1c2b" stroke="#aa1c2b" stroke-width="1.51"/><path d="M-218,1251L-253,1313L-96,1458Z" fill="#754061" stroke="#754061" stroke-width="1.51"/><path d="M-191,84L-288,369L-84,378Z" fill="#c97266" stroke="#c97266" stroke-width="1.51"/><path d="M-91,802L-142,900L-20,885Z" fill="#bd7f81" stroke="#bd7f81" stroke-width="1.51"/><path d="M-142,900L-218,1251L-31,1130Z" fill="#946273" stroke="#946273" stroke-width="1.51"/><path d="M-185,834L-142,900L-91,802Z" fill="#b67c81" stroke="#b67c81" stroke-width="1.51"/><path d="M-221,624L-185,834L-91,802Z" fill="#be8183" stroke="#be8183" stroke-width="1.51"/><path d="M-288,369L-221,624L-84,378Z" fill="#ca827d" stroke="#ca827d" stroke-width="1.51"/><path d="M-185,834L-218,1251L-142,900Z" fill="#9a6b78" stroke="#9a6b78" stroke-width="1.51"/><path d="M-281,-294L-191,84L-124,-86Z" fill="#ab3133" stroke="#ab3133" stroke-width="1.51"/><path d="M-253,1313L-218,1251L-185,834Z" fill="#81586e" stroke="#81586e" stroke-width="1.51"/><path d="M-221,624L-253,1313L-185,834Z" fill="#9e717a" stroke="#9e717a" stroke-width="1.51"/><path d="M-281,-294L-288,369L-191,84Z" fill="#b14a43" stroke="#b14a43" stroke-width="1.51"/><path d="M-288,369L-253,1313L-221,624Z" fill="#ad7a80" stroke="#ad7a80" stroke-width="1.51"/></svg>