<svg xmlns="http://www.w3.org/2000/svg" width="1920" height="1080"><path d="M184,1294L-38,1304L586,1333Z" fill="#895265" stroke="#895265" stroke-width="1.51"/><path d="M876,1325L709,1339L1082,1331Z" fill="#8a8fab" stroke="#8a8fab" stroke-width="1.51"/><path d="M1082,1331L709,1339L1219,1341Z" fill="#8490b0" stroke="#8490b0" stroke-width="1.51"/><path d="M1011,-266L1209,-245L1435,-252Z" fill="#ab7a80" stroke="#ab7a80" stroke-width="1.51"/><path d="M1011,-266L1435,-252L1628,-251Z" fill="#9c717b" stroke="#9c717b" stroke-width="1.51"/><path d="M1661,1289L1540,1307L1820,1298Z" fill="#2e6ba1" stroke="#2e6ba1" stroke-width="1.51"/><path d="M1353,1328L1219,1341L1952,1321Z" fill="#4a76a2" stroke="#4a76a2" stroke-width="1.51"/><path d="M1820,1298L1540,1307L1952,1321Z" fill="#256199" stroke="#256199" stroke-width="1.51"/><path d="M1540,1307L1353,1328L1952,1321Z" fill="#386d9f" stroke="#386d9f" stroke-width="1.51"/><path d="M1893,403L1945,573L2031,336Z" fill="#9a9ebd" stroke="#9a9ebd" stroke-width="1.51"/><path d="M1628,-251L1927,-215L2078,-239Z" fill="#714566" stroke="#714566" stroke-width="1.51"/><path d="M1927,-215L1956,-12L2078,-239Z" fill="#7b3f5e" stroke="#7b3f5e" stroke-width="1.51"/><path d="M2078,-239L1956,-12L2096,-20Z" fill="#81405b" stroke="#81405b" stroke-width="1.51"/><path d="M1915,1162L2096,1187L2099,956Z" fill="#2665a0" stroke="#2665a0" stroke-width="1.51"/><path d="M1896,994L1915,1162L2099,956Z" fill="#3175af" stroke="#3175af" stroke-width="1.51"/><path d="M1945,573L1925,730L2115,740Z" fill="#819ac2" stroke="#819ac2" stroke-width="1.51"/><path d="M2041,842L2099,956L2115,740Z" fill="#5c81ab" stroke="#5c81ab" stroke-width="1.51"/><path d="M2099,956L2096,1187L2115,740Z" fill="#3f709f" stroke="#3f709f" stroke-width="1.51"/><path d="M1945,573L2115,740L2134,484Z" fill="#8696b8" stroke="#8696b8" stroke-width="1.51"/><path d="M2031,336L1945,573L2134,484Z" fill="#9296b4" stroke="#9296b4" stroke-width="1.51"/><path d="M2090,237L2031,336L2134,484Z" fill="#91869b" stroke="#91869b" stroke-width="1.51"/><path d="M2115,740L2096,1187L2134,484Z" fill="#6282a8" stroke="#6282a8" stroke-width="1.51"/><path d="M2096,-20L1958,69L2134,132Z" fill="#8b566a" stroke="#8b566a" stroke-width="1.51"/><path d="M1958,69L2090,237L2134,132Z" fill="#906778" stroke="#906778" stroke-width="1.51"/><path d="M2078,-239L2096,-20L2134,132Z" fill="#7e4158" stroke="#7e4158" stroke-width="1.51"/><path d="M2090,237L2134,484L2134,132Z" fill="#8e7788" stroke="#8e7788" stroke-width="1.51"/><path d="M1925,730L2041,842L2115,740Z" fill="#6f8fb9" stroke="#6f8fb9" stroke-width="1.51"/><path d="M1915,1162L2072,1292L2096,1187Z" fill="#1a5797" stroke="#1a5797" stroke-width="1.51"/><path d="M1956,-12L1958,69L2096,-20Z" fill="#8d566d" stroke="#8d566d" stroke-width="1.51"/><path d="M1971,882L1896,994L2099,956Z" fill="#4b81b4" stroke="#4b81b4" stroke-width="1.51"/><path d="M2041,842L1971,882L2099,956Z" fill="#5482af" stroke="#5482af" stroke-width="1.51"/><path d="M1958,69L1904,291L2090,237Z" fill="#9b7a8d" stroke="#9b7a8d" stroke-width="1.51"/><path d="M1915,1162L1952,1321L2072,1292Z" fill="#195595" stroke="#195595" stroke-width="1.51"/><path d="M1904,291L2031,336L2090,237Z" fill="#99859b" stroke="#99859b" stroke-width="1.51"/><path d="M1628,-251L1768,-185L1927,-215Z" fill="#7c506b" stroke="#7c506b" stroke-width="1.51"/><path d="M1925,730L1971,882L2041,842Z" fill="#6991be" stroke="#6991be" stroke-width="1.51"/><path d="M1904,291L1893,403L2031,336Z" fill="#9e96b0" stroke="#9e96b0" stroke-width="1.51"/><path d="M1807,117L1787,200L1904,291Z" fill="#a68c9b" stroke="#a68c9b" stroke-width="1.51"/><path d="M1893,403L1789,515L1945,573Z" fill="#9daccd" stroke="#9daccd" stroke-width="1.51"/><path d="M1915,1162L1820,1298L1952,1321Z" fill="#1e5e9f" stroke="#1e5e9f" stroke-width="1.51"/><path d="M1927,-215L1809,-82L1956,-12Z" fill="#8e4f6c" stroke="#8e4f6c" stroke-width="1.51"/><path d="M1807,117L1904,291L1958,69Z" fill="#a17e92" stroke="#a17e92" stroke-width="1.51"/><path d="M1925,730L1839,872L1971,882Z" fill="#6b99c8" stroke="#6b99c8" stroke-width="1.51"/><path d="M1839,872L1896,994L1971,882Z" fill="#578fc2" stroke="#578fc2" stroke-width="1.51"/><path d="M1740,699L1925,730L1945,573Z" fill="#8caad2" stroke="#8caad2" stroke-width="1.51"/><path d="M1809,-82L1807,117L1956,-12Z" fill="#99657b" stroke="#99657b" stroke-width="1.51"/><path d="M1956,-12L1807,117L1958,69Z" fill="#9a6880" stroke="#9a6880" stroke-width="1.51"/><path d="M1789,515L1740,699L1945,573Z" fill="#97b2d5" stroke="#97b2d5" stroke-width="1.51"/><path d="M1896,994L1739,1091L1915,1162Z" fill="#347cb8" stroke="#347cb8" stroke-width="1.51"/><path d="M1768,-185L1809,-82L1927,-215Z" fill="#86506b" stroke="#86506b" stroke-width="1.51"/><path d="M1810,335L1893,403L1904,291Z" fill="#a39eb6" stroke="#a39eb6" stroke-width="1.51"/><path d="M1740,699L1839,872L1925,730Z" fill="#7ca6cf" stroke="#7ca6cf" stroke-width="1.51"/><path d="M1763,987L1739,1091L1896,994Z" fill="#4089bf" stroke="#4089bf" stroke-width="1.51"/><path d="M1739,1091L1820,1298L1915,1162Z" fill="#2b71b2" stroke="#2b71b2" stroke-width="1.51"/><path d="M1839,872L1763,987L1896,994Z" fill="#5290c3" stroke="#5290c3" stroke-width="1.51"/><path d="M1787,200L1810,335L1904,291Z" fill="#a697aa" stroke="#a697aa" stroke-width="1.51"/><path d="M1810,335L1789,515L1893,403Z" fill="#a3aac5" stroke="#a3aac5" stroke-width="1.51"/><path d="M141,-252L242,-222L1011,-266Z" fill="#b5594d" stroke="#b5594d" stroke-width="1.51"/><path d="M1596,-43L1594,72L1807,117Z" fill="#a97f89" stroke="#a97f89" stroke-width="1.51"/><path d="M1596,-43L1807,117L1809,-82Z" fill="#a07080" stroke="#a07080" stroke-width="1.51"/><path d="M1651,401L1789,515L1810,335Z" fill="#a7b3c8" stroke="#a7b3c8" stroke-width="1.51"/><path d="M1739,1091L1661,1289L1820,1298Z" fill="#2e72ae" stroke="#2e72ae" stroke-width="1.51"/><path d="M1617,873L1763,987L1839,872Z" fill="#61a0ca" stroke="#61a0ca" stroke-width="1.51"/><path d="M1740,699L1617,873L1839,872Z" fill="#77acd1" stroke="#77acd1" stroke-width="1.51"/><path d="M1619,1159L1661,1289L1739,1091Z" fill="#387fba" stroke="#387fba" stroke-width="1.51"/><path d="M1608,572L1740,699L1789,515Z" fill="#9cbedb" stroke="#9cbedb" stroke-width="1.51"/><path d="M1787,200L1652,270L1810,335Z" fill="#ab9fac" stroke="#ab9fac" stroke-width="1.51"/><path d="M1652,270L1651,401L1810,335Z" fill="#acadbc" stroke="#acadbc" stroke-width="1.51"/><path d="M1768,-185L1596,-43L1809,-82Z" fill="#996174" stroke="#996174" stroke-width="1.51"/><path d="M1594,72L1787,200L1807,117Z" fill="#a88894" stroke="#a88894" stroke-width="1.51"/><path d="M1594,72L1652,270L1787,200Z" fill="#ae979e" stroke="#ae979e" stroke-width="1.51"/><path d="M1651,401L1608,572L1789,515Z" fill="#a7c0d7" stroke="#a7c0d7" stroke-width="1.51"/><path d="M1608,572L1613,694L1740,699Z" fill="#9bc0dc" stroke="#9bc0dc" stroke-width="1.51"/><path d="M1613,694L1617,873L1740,699Z" fill="#89b9d9" stroke="#89b9d9" stroke-width="1.51"/><path d="M1608,984L1739,1091L1763,987Z" fill="#4693c3" stroke="#4693c3" stroke-width="1.51"/><path d="M1617,873L1608,984L1763,987Z" fill="#5ea2cb" stroke="#5ea2cb" stroke-width="1.51"/><path d="M1628,-251L1596,-43L1768,-185Z" fill="#916072" stroke="#916072" stroke-width="1.51"/><path d="M1608,984L1619,1159L1739,1091Z" fill="#458fc2" stroke="#458fc2" stroke-width="1.51"/><path d="M1608,984L1516,1107L1619,1159Z" fill="#5396c5" stroke="#5396c5" stroke-width="1.51"/><path d="M1481,-100L1596,-43L1628,-251Z" fill="#a46d79" stroke="#a46d79" stroke-width="1.51"/><path d="M1523,508L1608,572L1651,401Z" fill="#b3c9db" stroke="#b3c9db" stroke-width="1.51"/><path d="M1594,72L1467,189L1652,270Z" fill="#bba1a3" stroke="#bba1a3" stroke-width="1.51"/><path d="M1486,367L1651,401L1652,270Z" fill="#b8bac4" stroke="#b8bac4" stroke-width="1.51"/><path d="M1619,1159L1540,1307L1661,1289Z" fill="#3f7aaf" stroke="#3f7aaf" stroke-width="1.51"/><path d="M1613,694L1460,712L1617,873Z" fill="#97c2dd" stroke="#97c2dd" stroke-width="1.51"/><path d="M1460,712L1475,880L1617,873Z" fill="#90c1dc" stroke="#90c1dc" stroke-width="1.51"/><path d="M1486,367L1523,508L1651,401Z" fill="#bbc8d4" stroke="#bbc8d4" stroke-width="1.51"/><path d="M1467,189L1486,367L1652,270Z" fill="#c1b6b8" stroke="#c1b6b8" stroke-width="1.51"/><path d="M1540,62L1467,189L1594,72Z" fill="#bc9899" stroke="#bc9899" stroke-width="1.51"/><path d="M1540,62L1594,72L1596,-43Z" fill="#b2858b" stroke="#b2858b" stroke-width="1.51"/><path d="M1608,572L1460,712L1613,694Z" fill="#a7cbe1" stroke="#a7cbe1" stroke-width="1.51"/><path d="M1475,880L1608,984L1617,873Z" fill="#76b1d4" stroke="#76b1d4" stroke-width="1.51"/><path d="M1516,1107L1540,1307L1619,1159Z" fill="#4e89bf" stroke="#4e89bf" stroke-width="1.51"/><path d="M1435,-252L1481,-100L1628,-251Z" fill="#986b78" stroke="#986b78" stroke-width="1.51"/><path d="M1476,989L1516,1107L1608,984Z" fill="#60a3cc" stroke="#60a3cc" stroke-width="1.51"/><path d="M1475,880L1476,989L1608,984Z" fill="#74b0d3" stroke="#74b0d3" stroke-width="1.51"/><path d="M1523,508L1460,712L1608,572Z" fill="#b3d1e5" stroke="#b3d1e5" stroke-width="1.51"/><path d="M1481,-100L1540,62L1596,-43Z" fill="#b27f86" stroke="#b27f86" stroke-width="1.51"/><path d="M1327,1121L1353,1328L1516,1107Z" fill="#6998c8" stroke="#6998c8" stroke-width="1.51"/><path d="M1368,639L1460,712L1523,508Z" fill="#bbd8e9" stroke="#bbd8e9" stroke-width="1.51"/><path d="M1516,1107L1353,1328L1540,1307Z" fill="#5889b8" stroke="#5889b8" stroke-width="1.51"/><path d="M1481,-100L1347,37L1540,62Z" fill="#be8c8d" stroke="#be8c8d" stroke-width="1.51"/><path d="M1347,37L1467,189L1540,62Z" fill="#c69e9c" stroke="#c69e9c" stroke-width="1.51"/><path d="M1460,712L1380,851L1475,880Z" fill="#9dcae1" stroke="#9dcae1" stroke-width="1.51"/><path d="M1435,-252L1381,-206L1481,-100Z" fill="#a6747c" stroke="#a6747c" stroke-width="1.51"/><path d="M1304,589L1368,639L1523,508Z" fill="#c6dfeb" stroke="#c6dfeb" stroke-width="1.51"/><path d="M1486,367L1329,381L1523,508Z" fill="#cad3d9" stroke="#cad3d9" stroke-width="1.51"/><path d="M1329,381L1304,589L1523,508Z" fill="#cfdde6" stroke="#cfdde6" stroke-width="1.51"/><path d="M1467,189L1302,271L1486,367Z" fill="#d0c2bf" stroke="#d0c2bf" stroke-width="1.51"/><path d="M1476,989L1327,1121L1516,1107Z" fill="#6ba6ce" stroke="#6ba6ce" stroke-width="1.51"/><path d="M1475,880L1380,851L1476,989Z" fill="#8abfdb" stroke="#8abfdb" stroke-width="1.51"/><path d="M1317,1027L1327,1121L1476,989Z" fill="#77aed3" stroke="#77aed3" stroke-width="1.51"/><path d="M1285,-65L1347,37L1481,-100Z" fill="#c48b8b" stroke="#c48b8b" stroke-width="1.51"/><path d="M1302,271L1329,381L1486,367Z" fill="#d4cfce" stroke="#d4cfce" stroke-width="1.51"/><path d="M1380,851L1317,1027L1476,989Z" fill="#86bbd9" stroke="#86bbd9" stroke-width="1.51"/><path d="M1381,-206L1285,-65L1481,-100Z" fill="#bb7e81" stroke="#bb7e81" stroke-width="1.51"/><path d="M242,-222L638,-158L1011,-266Z" fill="#c36f64" stroke="#c36f64" stroke-width="1.51"/><path d="M1347,37L1302,271L1467,189Z" fill="#d3b1aa" stroke="#d3b1aa" stroke-width="1.51"/><path d="M1209,-245L1381,-206L1435,-252Z" fill="#a3747d" stroke="#a3747d" stroke-width="1.51"/><path d="M1368,639L1380,851L1460,712Z" fill="#b1d4e7" stroke="#b1d4e7" stroke-width="1.51"/><path d="M638,-158L763,-173L1011,-266Z" fill="#ca7f78" stroke="#ca7f78" stroke-width="1.51"/><path d="M1216,879L1207,957L1317,1027Z" fill="#9bc5df" stroke="#9bc5df" stroke-width="1.51"/><path d="M1165,1149L1219,1341L1327,1121Z" fill="#7fa0cc" stroke="#7fa0cc" stroke-width="1.51"/><path d="M1183,185L1302,271L1347,37Z" fill="#ddb7ad" stroke="#ddb7ad" stroke-width="1.51"/><path d="M1327,1121L1219,1341L1353,1328Z" fill="#7091bb" stroke="#7091bb" stroke-width="1.51"/><path d="M1368,639L1205,662L1380,851Z" fill="#c0dceb" stroke="#c0dceb" stroke-width="1.51"/><path d="M1205,662L1216,879L1380,851Z" fill="#b7d7e9" stroke="#b7d7e9" stroke-width="1.51"/><path d="M1216,879L1317,1027L1380,851Z" fill="#9ac6df" stroke="#9ac6df" stroke-width="1.51"/><path d="M1209,-245L1285,-65L1381,-206Z" fill="#b97e81" stroke="#b97e81" stroke-width="1.51"/><path d="M1144,417L1210,594L1304,589Z" fill="#e2ecf2" stroke="#e2ecf2" stroke-width="1.51"/><path d="M1144,417L1304,589L1329,381Z" fill="#e0e4e6" stroke="#e0e4e6" stroke-width="1.51"/><path d="M1304,589L1205,662L1368,639Z" fill="#cee3ee" stroke="#cee3ee" stroke-width="1.51"/><path d="M1153,58L1183,185L1347,37Z" fill="#deaca3" stroke="#deaca3" stroke-width="1.51"/><path d="M1285,-65L1175,-32L1347,37Z" fill="#d19591" stroke="#d19591" stroke-width="1.51"/><path d="M1175,-32L1153,58L1347,37Z" fill="#da9e98" stroke="#da9e98" stroke-width="1.51"/><path d="M1317,1027L1165,1149L1327,1121Z" fill="#82add3" stroke="#82add3" stroke-width="1.51"/><path d="M1302,271L1144,417L1329,381Z" fill="#e2d9d6" stroke="#e2d9d6" stroke-width="1.51"/><path d="M1210,594L1205,662L1304,589Z" fill="#d7e7f1" stroke="#d7e7f1" stroke-width="1.51"/><path d="M1207,957L1165,1149L1317,1027Z" fill="#8bb8d8" stroke="#8bb8d8" stroke-width="1.51"/><path d="M1209,-245L1175,-32L1285,-65Z" fill="#ce8887" stroke="#ce8887" stroke-width="1.51"/><path d="M1183,185L1144,417L1302,271Z" fill="#e8d2c9" stroke="#e8d2c9" stroke-width="1.51"/><path d="M1056,353L1144,417L1183,185Z" fill="#eed9d0" stroke="#eed9d0" stroke-width="1.51"/><path d="M1153,58L1088,124L1183,185Z" fill="#e7b5aa" stroke="#e7b5aa" stroke-width="1.51"/><path d="M1008,1031L1165,1149L1207,957Z" fill="#96bcda" stroke="#96bcda" stroke-width="1.51"/><path d="M1010,-116L1175,-32L1209,-245Z" fill="#d28a87" stroke="#d28a87" stroke-width="1.51"/><path d="M1011,-266L1010,-116L1209,-245Z" fill="#c18385" stroke="#c18385" stroke-width="1.51"/><path d="M1144,417L1051,545L1210,594Z" fill="#eaeff2" stroke="#eaeff2" stroke-width="1.51"/><path d="M1205,662L1006,788L1216,879Z" fill="#c8e0ed" stroke="#c8e0ed" stroke-width="1.51"/><path d="M1165,1149L1082,1331L1219,1341Z" fill="#8096bd" stroke="#8096bd" stroke-width="1.51"/><path d="M763,-173L880,-198L1011,-266Z" fill="#c7827f" stroke="#c7827f" stroke-width="1.51"/><path d="M1006,788L1207,957L1216,879Z" fill="#b6d6e8" stroke="#b6d6e8" stroke-width="1.51"/><path d="M242,-222L388,-169L638,-158Z" fill="#c2594c" stroke="#c2594c" stroke-width="1.51"/><path d="M982,681L1006,788L1205,662Z" fill="#dbe9f2" stroke="#dbe9f2" stroke-width="1.51"/><path d="M1006,788L1008,1031L1207,957Z" fill="#b2d1e5" stroke="#b2d1e5" stroke-width="1.51"/><path d="M1051,545L1205,662L1210,594Z" fill="#e1ecf3" stroke="#e1ecf3" stroke-width="1.51"/><path d="M1008,1031L1018,1123L1165,1149Z" fill="#97b6d7" stroke="#97b6d7" stroke-width="1.51"/><path d="M992,217L1056,353L1183,185Z" fill="#f2d1c3" stroke="#f2d1c3" stroke-width="1.51"/><path d="M1051,545L982,681L1205,662Z" fill="#e3edf3" stroke="#e3edf3" stroke-width="1.51"/><path d="M1018,1123L1082,1331L1165,1149Z" fill="#8ea7d0" stroke="#8ea7d0" stroke-width="1.51"/><path d="M1088,124L992,217L1183,185Z" fill="#eec2b3" stroke="#eec2b3" stroke-width="1.51"/><path d="M1010,-116L1153,58L1175,-32Z" fill="#de9b93" stroke="#de9b93" stroke-width="1.51"/><path d="M1010,-116L1088,124L1153,58Z" fill="#e4a49a" stroke="#e4a49a" stroke-width="1.51"/><path d="M1056,353L1051,545L1144,417Z" fill="#f0eae6" stroke="#f0eae6" stroke-width="1.51"/><path d="M1006,788L876,877L1008,1031Z" fill="#c0d9e8" stroke="#c0d9e8" stroke-width="1.51"/><path d="M937,1116L876,1325L1018,1123Z" fill="#9aacd1" stroke="#9aacd1" stroke-width="1.51"/><path d="M937,574L1051,545L1056,353Z" fill="#f4f1ef" stroke="#f4f1ef" stroke-width="1.51"/><path d="M1018,1123L876,1325L1082,1331Z" fill="#8f9fc3" stroke="#8f9fc3" stroke-width="1.51"/><path d="M1010,-116L883,82L1088,124Z" fill="#eba89c" stroke="#eba89c" stroke-width="1.51"/><path d="M883,82L992,217L1088,124Z" fill="#f3bfaf" stroke="#f3bfaf" stroke-width="1.51"/><path d="M937,574L982,681L1051,545Z" fill="#eef2f5" stroke="#eef2f5" stroke-width="1.51"/><path d="M833,358L937,574L1056,353Z" fill="#faece4" stroke="#faece4" stroke-width="1.51"/><path d="M876,877L861,955L1008,1031Z" fill="#b7cedf" stroke="#b7cedf" stroke-width="1.51"/><path d="M900,-110L883,82L1010,-116Z" fill="#e69b90" stroke="#e69b90" stroke-width="1.51"/><path d="M929,254L833,358L1056,353Z" fill="#fbdfd1" stroke="#fbdfd1" stroke-width="1.51"/><path d="M992,217L929,254L1056,353Z" fill="#f8d7c9" stroke="#f8d7c9" stroke-width="1.51"/><path d="M880,-198L1010,-116L1011,-266Z" fill="#cc8887" stroke="#cc8887" stroke-width="1.51"/><path d="M880,-198L900,-110L1010,-116Z" fill="#da8c87" stroke="#da8c87" stroke-width="1.51"/><path d="M1008,1031L937,1116L1018,1123Z" fill="#9fbbd9" stroke="#9fbbd9" stroke-width="1.51"/><path d="M982,681L829,691L1006,788Z" fill="#e2ebf1" stroke="#e2ebf1" stroke-width="1.51"/><path d="M883,82L929,254L992,217Z" fill="#f8c7b4" stroke="#f8c7b4" stroke-width="1.51"/><path d="M861,955L937,1116L1008,1031Z" fill="#a6c2db" stroke="#a6c2db" stroke-width="1.51"/><path d="M829,691L876,877L1006,788Z" fill="#d7e2ea" stroke="#d7e2ea" stroke-width="1.51"/><path d="M937,574L829,691L982,681Z" fill="#eceff0" stroke="#eceff0" stroke-width="1.51"/><path d="M725,-107L883,82L900,-110Z" fill="#e69688" stroke="#e69688" stroke-width="1.51"/><path d="M883,82L737,272L929,254Z" fill="#fac6b0" stroke="#fac6b0" stroke-width="1.51"/><path d="M708,1084L876,1325L937,1116Z" fill="#9fa8c8" stroke="#9fa8c8" stroke-width="1.51"/><path d="M861,955L708,1084L937,1116Z" fill="#a8bad0" stroke="#a8bad0" stroke-width="1.51"/><path d="M833,358L712,562L937,574Z" fill="#faebe3" stroke="#faebe3" stroke-width="1.51"/><path d="M712,562L829,691L937,574Z" fill="#f1ebe8" stroke="#f1ebe8" stroke-width="1.51"/><path d="M708,1084L709,1339L876,1325Z" fill="#9897b3" stroke="#9897b3" stroke-width="1.51"/><path d="M829,691L781,705L876,877Z" fill="#dde2e4" stroke="#dde2e4" stroke-width="1.51"/><path d="M737,272L833,358L929,254Z" fill="#fbd4c1" stroke="#fbd4c1" stroke-width="1.51"/><path d="M781,705L720,801L876,877Z" fill="#d8dcde" stroke="#d8dcde" stroke-width="1.51"/><path d="M689,70L737,272L883,82Z" fill="#f5b59d" stroke="#f5b59d" stroke-width="1.51"/><path d="M725,-107L689,70L883,82Z" fill="#eb9c89" stroke="#eb9c89" stroke-width="1.51"/><path d="M880,-198L763,-173L900,-110Z" fill="#d5867e" stroke="#d5867e" stroke-width="1.51"/><path d="M763,-173L725,-107L900,-110Z" fill="#dc867a" stroke="#dc867a" stroke-width="1.51"/><path d="M734,349L712,562L833,358Z" fill="#fce1d2" stroke="#fce1d2" stroke-width="1.51"/><path d="M686,958L861,955L876,877Z" fill="#bfcbd6" stroke="#bfcbd6" stroke-width="1.51"/><path d="M720,801L686,958L876,877Z" fill="#c9d1d6" stroke="#c9d1d6" stroke-width="1.51"/><path d="M712,562L781,705L829,691Z" fill="#ede6e2" stroke="#ede6e2" stroke-width="1.51"/><path d="M686,958L708,1084L861,955Z" fill="#b3becc" stroke="#b3becc" stroke-width="1.51"/><path d="M737,272L734,349L833,358Z" fill="#fcd6c1" stroke="#fcd6c1" stroke-width="1.51"/><path d="M708,1084L563,1191L709,1339Z" fill="#a096b1" stroke="#a096b1" stroke-width="1.51"/><path d="M612,-69L689,70L725,-107Z" fill="#e58c78" stroke="#e58c78" stroke-width="1.51"/><path d="M632,359L712,562L734,349Z" fill="#fddcca" stroke="#fddcca" stroke-width="1.51"/><path d="M689,70L635,263L737,272Z" fill="#f9bb9e" stroke="#f9bb9e" stroke-width="1.51"/><path d="M625,578L720,801L781,705Z" fill="#eadfda" stroke="#eadfda" stroke-width="1.51"/><path d="M712,562L625,578L781,705Z" fill="#f3e4db" stroke="#f3e4db" stroke-width="1.51"/><path d="M625,578L531,658L720,801Z" fill="#ecd7ce" stroke="#ecd7ce" stroke-width="1.51"/><path d="M531,658L589,817L720,801Z" fill="#e0cfc9" stroke="#e0cfc9" stroke-width="1.51"/><path d="M637,941L686,958L720,801Z" fill="#c7c7cb" stroke="#c7c7cb" stroke-width="1.51"/><path d="M638,-158L725,-107L763,-173Z" fill="#d77e72" stroke="#d77e72" stroke-width="1.51"/><path d="M410,1261L184,1294L586,1333Z" fill="#916879" stroke="#916879" stroke-width="1.51"/><path d="M563,1191L586,1333L709,1339Z" fill="#958398" stroke="#958398" stroke-width="1.51"/><path d="M632,359L625,578L712,562Z" fill="#fbdecf" stroke="#fbdecf" stroke-width="1.51"/><path d="M589,817L637,941L720,801Z" fill="#d0cac9" stroke="#d0cac9" stroke-width="1.51"/><path d="M635,263L632,359L734,349Z" fill="#fcccb4" stroke="#fcccb4" stroke-width="1.51"/><path d="M635,263L734,349L737,272Z" fill="#fcccb3" stroke="#fcccb3" stroke-width="1.51"/><path d="M597,55L635,263L689,70Z" fill="#f2a78b" stroke="#f2a78b" stroke-width="1.51"/><path d="M612,-69L597,55L689,70Z" fill="#e89078" stroke="#e89078" stroke-width="1.51"/><path d="M638,-158L612,-69L725,-107Z" fill="#dd7d6d" stroke="#dd7d6d" stroke-width="1.51"/><path d="M686,958L637,941L708,1084Z" fill="#b5b8c3" stroke="#b5b8c3" stroke-width="1.51"/><path d="M637,941L563,1191L708,1084Z" fill="#aba8b7" stroke="#aba8b7" stroke-width="1.51"/><path d="M597,55L484,92L635,263Z" fill="#f1a183" stroke="#f1a183" stroke-width="1.51"/><path d="M399,420L389,499L625,578Z" fill="#f9c9b4" stroke="#f9c9b4" stroke-width="1.51"/><path d="M399,420L625,578L632,359Z" fill="#fbceb9" stroke="#fbceb9" stroke-width="1.51"/><path d="M404,225L632,359L635,263Z" fill="#f9ba9c" stroke="#f9ba9c" stroke-width="1.51"/><path d="M484,92L404,225L635,263Z" fill="#f4a483" stroke="#f4a483" stroke-width="1.51"/><path d="M384,1002L563,1191L637,941Z" fill="#aea0aa" stroke="#aea0aa" stroke-width="1.51"/><path d="M589,817L466,803L637,941Z" fill="#d0c1bd" stroke="#d0c1bd" stroke-width="1.51"/><path d="M483,-28L612,-69L638,-158Z" fill="#dd7865" stroke="#dd7865" stroke-width="1.51"/><path d="M388,-169L483,-28L638,-158Z" fill="#d66957" stroke="#d66957" stroke-width="1.51"/><path d="M466,803L384,1002L637,941Z" fill="#c5b1af" stroke="#c5b1af" stroke-width="1.51"/><path d="M483,-28L597,55L612,-69Z" fill="#e3836b" stroke="#e3836b" stroke-width="1.51"/><path d="M404,225L399,420L632,359Z" fill="#f9b99c" stroke="#f9b99c" stroke-width="1.51"/><path d="M389,499L531,658L625,578Z" fill="#f6d0c0" stroke="#f6d0c0" stroke-width="1.51"/><path d="M384,1002L419,1190L563,1191Z" fill="#a78b9a" stroke="#a78b9a" stroke-width="1.51"/><path d="M531,658L466,803L589,817Z" fill="#e0c5bd" stroke="#e0c5bd" stroke-width="1.51"/><path d="M563,1191L410,1261L586,1333Z" fill="#997d90" stroke="#997d90" stroke-width="1.51"/><path d="M483,-28L484,92L597,55Z" fill="#e7876c" stroke="#e7876c" stroke-width="1.51"/><path d="M419,1190L410,1261L563,1191Z" fill="#9f7f93" stroke="#9f7f93" stroke-width="1.51"/><path d="M395,699L466,803L531,658Z" fill="#e5c1b5" stroke="#e5c1b5" stroke-width="1.51"/><path d="M389,499L395,699L531,658Z" fill="#f0c4b5" stroke="#f0c4b5" stroke-width="1.51"/><path d="M389,499L298,578L395,699Z" fill="#efbaac" stroke="#efbaac" stroke-width="1.51"/><path d="M324,345L399,420L404,225Z" fill="#f3aa8e" stroke="#f3aa8e" stroke-width="1.51"/><path d="M272,867L384,1002L466,803Z" fill="#c6a4a2" stroke="#c6a4a2" stroke-width="1.51"/><path d="M388,-169L281,-44L483,-28Z" fill="#d35f4f" stroke="#d35f4f" stroke-width="1.51"/><path d="M281,-44L310,103L483,-28Z" fill="#db6b56" stroke="#db6b56" stroke-width="1.51"/><path d="M483,-28L310,103L484,92Z" fill="#e37e63" stroke="#e37e63" stroke-width="1.51"/><path d="M310,103L404,225L484,92Z" fill="#ea8b6d" stroke="#ea8b6d" stroke-width="1.51"/><path d="M395,699L272,867L466,803Z" fill="#d6afa8" stroke="#d6afa8" stroke-width="1.51"/><path d="M245,1026L251,1161L384,1002Z" fill="#a6808c" stroke="#a6808c" stroke-width="1.51"/><path d="M286,696L272,867L395,699Z" fill="#daaaa3" stroke="#daaaa3" stroke-width="1.51"/><path d="M298,578L286,696L395,699Z" fill="#e7b2a7" stroke="#e7b2a7" stroke-width="1.51"/><path d="M230,1244L184,1294L410,1261Z" fill="#915e72" stroke="#915e72" stroke-width="1.51"/><path d="M251,1161L410,1261L419,1190Z" fill="#9d748a" stroke="#9d748a" stroke-width="1.51"/><path d="M384,1002L251,1161L419,1190Z" fill="#a4808f" stroke="#a4808f" stroke-width="1.51"/><path d="M262,235L324,345L404,225Z" fill="#ee997c" stroke="#ee997c" stroke-width="1.51"/><path d="M310,103L262,235L404,225Z" fill="#e98b6d" stroke="#e98b6d" stroke-width="1.51"/><path d="M251,1161L230,1244L410,1261Z" fill="#98687f" stroke="#98687f" stroke-width="1.51"/><path d="M324,345L389,499L399,420Z" fill="#f5b59d" stroke="#f5b59d" stroke-width="1.51"/><path d="M272,867L245,1026L384,1002Z" fill="#b58f93" stroke="#b58f93" stroke-width="1.51"/><path d="M324,345L298,578L389,499Z" fill="#f3b4a1" stroke="#f3b4a1" stroke-width="1.51"/><path d="M177,550L298,578L324,345Z" fill="#f0ac9b" stroke="#f0ac9b" stroke-width="1.51"/><path d="M147,403L177,550L324,345Z" fill="#eda08e" stroke="#eda08e" stroke-width="1.51"/><path d="M242,-222L281,-44L388,-169Z" fill="#c34a41" stroke="#c34a41" stroke-width="1.51"/><path d="M184,857L272,867L286,696Z" fill="#ce9c98" stroke="#ce9c98" stroke-width="1.51"/><path d="M281,-44L157,141L310,103Z" fill="#d96651" stroke="#d96651" stroke-width="1.51"/><path d="M157,141L262,235L310,103Z" fill="#e1795f" stroke="#e1795f" stroke-width="1.51"/><path d="M262,235L147,403L324,345Z" fill="#ec977f" stroke="#ec977f" stroke-width="1.51"/><path d="M157,141L176,210L262,235Z" fill="#e27b61" stroke="#e27b61" stroke-width="1.51"/><path d="M242,-222L139,-59L281,-44Z" fill="#c4413b" stroke="#c4413b" stroke-width="1.51"/><path d="M139,-59L157,141L281,-44Z" fill="#cf5446" stroke="#cf5446" stroke-width="1.51"/><path d="M136,710L184,857L286,696Z" fill="#d49b96" stroke="#d49b96" stroke-width="1.51"/><path d="M177,550L286,696L298,578Z" fill="#e8ab9f" stroke="#e8ab9f" stroke-width="1.51"/><path d="M184,857L245,1026L272,867Z" fill="#bb8e8f" stroke="#bb8e8f" stroke-width="1.51"/><path d="M177,550L136,710L286,696Z" fill="#e1a299" stroke="#e1a299" stroke-width="1.51"/><path d="M184,857L109,950L245,1026Z" fill="#b38389" stroke="#b38389" stroke-width="1.51"/><path d="M176,210L147,403L262,235Z" fill="#e68a72" stroke="#e68a72" stroke-width="1.51"/><path d="M245,1026L86,1088L251,1161Z" fill="#9f7080" stroke="#9f7080" stroke-width="1.51"/><path d="M141,-252L139,-59L242,-222Z" fill="#b13335" stroke="#b13335" stroke-width="1.51"/><path d="M86,1088L230,1244L251,1161Z" fill="#99647b" stroke="#99647b" stroke-width="1.51"/><path d="M109,950L86,1088L245,1026Z" fill="#a47580" stroke="#a47580" stroke-width="1.51"/><path d="M86,1088L184,1294L230,1244Z" fill="#935b75" stroke="#935b75" stroke-width="1.51"/><path d="M10,-238L139,-59L141,-252Z" fill="#ab262f" stroke="#ab262f" stroke-width="1.51"/><path d="M139,-59L27,133L157,141Z" fill="#cf5647" stroke="#cf5647" stroke-width="1.51"/><path d="M-59,265L-22,345L176,210Z" fill="#db7563" stroke="#db7563" stroke-width="1.51"/><path d="M-22,345L147,403L176,210Z" fill="#e28571" stroke="#e28571" stroke-width="1.51"/><path d="M147,403L-28,511L177,550Z" fill="#e6978b" stroke="#e6978b" stroke-width="1.51"/><path d="M-28,511L136,710L177,550Z" fill="#e19991" stroke="#e19991" stroke-width="1.51"/><path d="M86,1088L-38,1304L184,1294Z" fill="#8b4e6a" stroke="#8b4e6a" stroke-width="1.51"/><path d="M136,710L-41,839L184,857Z" fill="#c68b8a" stroke="#c68b8a" stroke-width="1.51"/><path d="M-41,839L109,950L184,857Z" fill="#b98285" stroke="#b98285" stroke-width="1.51"/><path d="M27,133L-59,265L176,210Z" fill="#d86b57" stroke="#d86b57" stroke-width="1.51"/><path d="M157,141L27,133L176,210Z" fill="#d96b56" stroke="#d96b56" stroke-width="1.51"/><path d="M-28,511L-62,720L136,710Z" fill="#d68d89" stroke="#d68d89" stroke-width="1.51"/><path d="M-56,-32L27,133L139,-59Z" fill="#c4403b" stroke="#c4403b" stroke-width="1.51"/><path d="M-62,720L-41,839L136,710Z" fill="#c98585" stroke="#c98585" stroke-width="1.51"/><path d="M10,-238L-56,-32L139,-59Z" fill="#b6222e" stroke="#b6222e" stroke-width="1.51"/><path d="M-22,345L-28,511L147,403Z" fill="#e18a7d" stroke="#e18a7d" stroke-width="1.51"/><path d="M-61,1100L-38,1304L86,1088Z" fill="#8e506c" stroke="#8e506c" stroke-width="1.51"/><path d="M-17,986L86,1088L109,950Z" fill="#a16d7a" stroke="#a16d7a" stroke-width="1.51"/><path d="M-41,839L-17,986L109,950Z" fill="#ae747d" stroke="#ae747d" stroke-width="1.51"/><path d="M-123,653L-62,720L-28,511Z" fill="#ca8786" stroke="#ca8786" stroke-width="1.51"/><path d="M-17,986L-61,1100L86,1088Z" fill="#986072" stroke="#986072" stroke-width="1.51"/><path d="M-61,1100L-132,1236L-38,1304Z" fill="#7c4364" stroke="#7c4364" stroke-width="1.51"/><path d="M-145,582L-123,653L-28,511Z" fill="#ca8786" stroke="#ca8786" stroke-width="1.51"/><path d="M-113,-50L-56,-32L10,-238Z" fill="#ab1a2b" stroke="#ab1a2b" stroke-width="1.51"/><path d="M-196,-197L-113,-50L10,-238Z" fill="#980f27" stroke="#980f27" stroke-width="1.51"/><path d="M-56,-32L-149,76L27,133Z" fill="#bc413c" stroke="#bc413c" stroke-width="1.51"/><path d="M-149,76L-59,265L27,133Z" fill="#c6584b" stroke="#c6584b" stroke-width="1.51"/><path d="M-165,434L-28,511L-22,345Z" fill="#d2827a" stroke="#d2827a" stroke-width="1.51"/><path d="M-164,1180L-132,1236L-61,1100Z" fill="#794767" stroke="#794767" stroke-width="1.51"/><path d="M-181,944L-61,1100L-17,986Z" fill="#8f6072" stroke="#8f6072" stroke-width="1.51"/><path d="M-41,839L-163,875L-17,986Z" fill="#a4717a" stroke="#a4717a" stroke-width="1.51"/><path d="M-163,875L-181,944L-17,986Z" fill="#966976" stroke="#966976" stroke-width="1.51"/><path d="M-149,76L-200,263L-59,265Z" fill="#be5c4f" stroke="#be5c4f" stroke-width="1.51"/><path d="M-59,265L-165,434L-22,345Z" fill="#ce786c" stroke="#ce786c" stroke-width="1.51"/><path d="M-165,434L-145,582L-28,511Z" fill="#cb8683" stroke="#cb8683" stroke-width="1.51"/><path d="M-200,263L-165,434L-59,265Z" fill="#c37065" stroke="#c37065" stroke-width="1.51"/><path d="M-113,-50L-149,76L-56,-32Z" fill="#ae3234" stroke="#ae3234" stroke-width="1.51"/><path d="M-62,720L-163,875L-41,839Z" fill="#af797f" stroke="#af797f" stroke-width="1.51"/><path d="M-123,653L-163,875L-62,720Z" fill="#b47c81" stroke="#b47c81" stroke-width="1.51"/><path d="M-181,944L-164,1180L-61,1100Z" fill="#7f546c" stroke="#7f546c" stroke-width="1.51"/><path d="M-196,-197L-149,76L-113,-50Z" fill="#a0232d" stroke="#a0232d" stroke-width="1.51"/><path d="M-145,582L-163,875L-123,653Z" fill="#b67e82" stroke="#b67e82" stroke-width="1.51"/><path d="M-181,944L-163,875L-145,582Z" fill="#a4757d" stroke="#a4757d" stroke-width="1.51"/><path d="M-165,434L-181,944L-145,582Z" fill="#b78083" stroke="#b78083" stroke-width="1.51"/><path d="M-196,-197L-200,263L-149,76Z" fill="#a73837" stroke="#a73837" stroke-width="1.51"/><path d="M-200,263L-181,944L-165,434Z" fill="#be8384" stroke="#be8384" stroke-width="1.51"/></svg>