<svg xmlns="http://www.w3.org/2000/svg" width="1920" height="1080"><path d="M408,1369L-163,1351L648,1384Z" fill="#895c6c" stroke="#895c6c" stroke-width="1.51"/><path d="M61,-222L446,-228L823,-268Z" fill="#bf6052" stroke="#bf6052" stroke-width="1.51"/><path d="M-326,-197L61,-222L1142,-302Z" fill="#b64c43" stroke="#b64c43" stroke-width="1.51"/><path d="M61,-222L823,-268L1142,-302Z" fill="#c0756d" stroke="#c0756d" stroke-width="1.51"/><path d="M1319,1323L1017,1338L1704,1369Z" fill="#6887ae" stroke="#6887ae" stroke-width="1.51"/><path d="M1017,1338L648,1384L1704,1369Z" fill="#7c8daf" stroke="#7c8daf" stroke-width="1.51"/><path d="M1142,-302L1348,-274L1855,-279Z" fill="#986f7a" stroke="#986f7a" stroke-width="1.51"/><path d="M2061,1215L1853,1246L2196,1261Z" fill="#1f61a6" stroke="#1f61a6" stroke-width="1.51"/><path d="M1853,1246L1704,1369L2196,1261Z" fill="#2464a1" stroke="#2464a1" stroke-width="1.51"/><path d="M2182,129L2083,167L2225,415Z" fill="#967a8c" stroke="#967a8c" stroke-width="1.51"/><path d="M2111,469L2189,664L2225,415Z" fill="#8e98b7" stroke="#8e98b7" stroke-width="1.51"/><path d="M1855,-279L1971,-205L2271,-202Z" fill="#764265" stroke="#764265" stroke-width="1.51"/><path d="M1971,-205L2166,33L2271,-202Z" fill="#82415d" stroke="#82415d" stroke-width="1.51"/><path d="M2166,33L2182,129L2271,-202Z" fill="#854b60" stroke="#854b60" stroke-width="1.51"/><path d="M2182,129L2225,415L2271,-202Z" fill="#8b5e6f" stroke="#8b5e6f" stroke-width="1.51"/><path d="M2189,664L1995,906L2287,873Z" fill="#678bb5" stroke="#678bb5" stroke-width="1.51"/><path d="M1995,906L2165,1024L2287,873Z" fill="#4e7eae" stroke="#4e7eae" stroke-width="1.51"/><path d="M2165,1024L2196,1261L2287,873Z" fill="#2b679b" stroke="#2b679b" stroke-width="1.51"/><path d="M2225,415L2189,664L2287,873Z" fill="#7c8daf" stroke="#7c8daf" stroke-width="1.51"/><path d="M2271,-202L2225,415L2287,873Z" fill="#8d8296" stroke="#8d8296" stroke-width="1.51"/><path d="M2165,1024L2061,1215L2196,1261Z" fill="#23619f" stroke="#23619f" stroke-width="1.51"/><path d="M2083,167L2025,451L2111,469Z" fill="#9c97b2" stroke="#9c97b2" stroke-width="1.51"/><path d="M1971,-205L2062,55L2166,33Z" fill="#905670" stroke="#905670" stroke-width="1.51"/><path d="M1950,782L1995,906L2189,664Z" fill="#759ac7" stroke="#759ac7" stroke-width="1.51"/><path d="M2083,167L2111,469L2225,415Z" fill="#978ea5" stroke="#978ea5" stroke-width="1.51"/><path d="M1921,342L2025,451L2083,167Z" fill="#a197b1" stroke="#a197b1" stroke-width="1.51"/><path d="M2111,469L2025,451L2189,664Z" fill="#93a0c3" stroke="#93a0c3" stroke-width="1.51"/><path d="M2166,33L2062,55L2182,129Z" fill="#916175" stroke="#916175" stroke-width="1.51"/><path d="M2025,451L1950,782L2189,664Z" fill="#8ca3cb" stroke="#8ca3cb" stroke-width="1.51"/><path d="M2062,55L2083,167L2182,129Z" fill="#966c7f" stroke="#966c7f" stroke-width="1.51"/><path d="M1953,1192L2061,1215L2165,1024Z" fill="#296cac" stroke="#296cac" stroke-width="1.51"/><path d="M1995,906L1953,1192L2165,1024Z" fill="#387cb6" stroke="#387cb6" stroke-width="1.51"/><path d="M1953,1192L1853,1246L2061,1215Z" fill="#286cb0" stroke="#286cb0" stroke-width="1.51"/><path d="M1867,1176L1953,1192L1995,906Z" fill="#367eb9" stroke="#367eb9" stroke-width="1.51"/><path d="M1747,585L1950,782L2025,451Z" fill="#96b2d5" stroke="#96b2d5" stroke-width="1.51"/><path d="M1761,107L1813,258L2062,55Z" fill="#a78796" stroke="#a78796" stroke-width="1.51"/><path d="M1971,-205L1799,17L2062,55Z" fill="#976178" stroke="#976178" stroke-width="1.51"/><path d="M2062,55L1813,258L2083,167Z" fill="#a28194" stroke="#a28194" stroke-width="1.51"/><path d="M1813,258L1921,342L2083,167Z" fill="#a695a7" stroke="#a695a7" stroke-width="1.51"/><path d="M1799,17L1761,107L2062,55Z" fill="#a27888" stroke="#a27888" stroke-width="1.51"/><path d="M1849,874L1867,1176L1995,906Z" fill="#4f90c2" stroke="#4f90c2" stroke-width="1.51"/><path d="M1921,342L1747,585L2025,451Z" fill="#a3b1cc" stroke="#a3b1cc" stroke-width="1.51"/><path d="M1857,821L1849,874L1950,782Z" fill="#74a5ce" stroke="#74a5ce" stroke-width="1.51"/><path d="M1714,-164L1799,17L1971,-205Z" fill="#986174" stroke="#986174" stroke-width="1.51"/><path d="M1950,782L1849,874L1995,906Z" fill="#6c9ecb" stroke="#6c9ecb" stroke-width="1.51"/><path d="M1747,585L1857,821L1950,782Z" fill="#88b1d5" stroke="#88b1d5" stroke-width="1.51"/><path d="M1855,-279L1714,-164L1971,-205Z" fill="#84546d" stroke="#84546d" stroke-width="1.51"/><path d="M1867,1176L1853,1246L1953,1192Z" fill="#2d73b4" stroke="#2d73b4" stroke-width="1.51"/><path d="M1653,358L1747,585L1921,342Z" fill="#aabace" stroke="#aabace" stroke-width="1.51"/><path d="M1849,874L1596,1082L1867,1176Z" fill="#4593c3" stroke="#4593c3" stroke-width="1.51"/><path d="M1813,258L1653,358L1921,342Z" fill="#acabba" stroke="#acabba" stroke-width="1.51"/><path d="M1580,989L1596,1082L1849,874Z" fill="#63a4cc" stroke="#63a4cc" stroke-width="1.51"/><path d="M1348,-274L1714,-164L1855,-279Z" fill="#8f6474" stroke="#8f6474" stroke-width="1.51"/><path d="M1747,585L1576,644L1857,821Z" fill="#98c0dc" stroke="#98c0dc" stroke-width="1.51"/><path d="M1596,1082L1853,1246L1867,1176Z" fill="#3982bb" stroke="#3982bb" stroke-width="1.51"/><path d="M1596,1082L1704,1369L1853,1246Z" fill="#3c7eb7" stroke="#3c7eb7" stroke-width="1.51"/><path d="M1580,989L1849,874L1857,821Z" fill="#6ba9d0" stroke="#6ba9d0" stroke-width="1.51"/><path d="M1522,691L1580,989L1857,821Z" fill="#86bad9" stroke="#86bad9" stroke-width="1.51"/><path d="M1576,644L1522,691L1857,821Z" fill="#9cc5df" stroke="#9cc5df" stroke-width="1.51"/><path d="M1761,107L1661,99L1813,258Z" fill="#af969d" stroke="#af969d" stroke-width="1.51"/><path d="M1661,99L1653,358L1813,258Z" fill="#b4a7ae" stroke="#b4a7ae" stroke-width="1.51"/><path d="M1714,-164L1553,-69L1799,17Z" fill="#a6747f" stroke="#a6747f" stroke-width="1.51"/><path d="M1553,-69L1661,99L1799,17Z" fill="#af838a" stroke="#af838a" stroke-width="1.51"/><path d="M1661,99L1761,107L1799,17Z" fill="#ab8790" stroke="#ab8790" stroke-width="1.51"/><path d="M1653,358L1537,525L1747,585Z" fill="#b5cbdc" stroke="#b5cbdc" stroke-width="1.51"/><path d="M1537,525L1576,644L1747,585Z" fill="#b1cfe3" stroke="#b1cfe3" stroke-width="1.51"/><path d="M1553,-69L1522,27L1661,99Z" fill="#ba8c8e" stroke="#ba8c8e" stroke-width="1.51"/><path d="M1596,1082L1394,1207L1704,1369Z" fill="#578ec2" stroke="#578ec2" stroke-width="1.51"/><path d="M1348,-274L1553,-69L1714,-164Z" fill="#ab747c" stroke="#ab747c" stroke-width="1.51"/><path d="M1342,162L1653,358L1661,99Z" fill="#c7b1af" stroke="#c7b1af" stroke-width="1.51"/><path d="M1394,1207L1319,1323L1704,1369Z" fill="#5d87b4" stroke="#5d87b4" stroke-width="1.51"/><path d="M1522,691L1420,979L1580,989Z" fill="#8fc3dd" stroke="#8fc3dd" stroke-width="1.51"/><path d="M1342,162L1420,412L1653,358Z" fill="#cfc8c7" stroke="#cfc8c7" stroke-width="1.51"/><path d="M1420,412L1537,525L1653,358Z" fill="#c5d0d9" stroke="#c5d0d9" stroke-width="1.51"/><path d="M1522,27L1342,162L1661,99Z" fill="#c6a19e" stroke="#c6a19e" stroke-width="1.51"/><path d="M1348,-274L1322,-195L1553,-69Z" fill="#b67b80" stroke="#b67b80" stroke-width="1.51"/><path d="M1580,989L1420,979L1596,1082Z" fill="#70add2" stroke="#70add2" stroke-width="1.51"/><path d="M1420,979L1395,1016L1596,1082Z" fill="#76b1d3" stroke="#76b1d3" stroke-width="1.51"/><path d="M1395,1016L1394,1207L1596,1082Z" fill="#6fa7ce" stroke="#6fa7ce" stroke-width="1.51"/><path d="M1271,836L1420,979L1522,691Z" fill="#a6cfe3" stroke="#a6cfe3" stroke-width="1.51"/><path d="M1537,525L1522,691L1576,644Z" fill="#b6d5e7" stroke="#b6d5e7" stroke-width="1.51"/><path d="M1395,483L1522,691L1537,525Z" fill="#c4ddea" stroke="#c4ddea" stroke-width="1.51"/><path d="M1420,412L1395,483L1537,525Z" fill="#cddbe3" stroke="#cddbe3" stroke-width="1.51"/><path d="M1322,-195L1522,27L1553,-69Z" fill="#be8688" stroke="#be8688" stroke-width="1.51"/><path d="M1395,483L1201,622L1522,691Z" fill="#cde2ee" stroke="#cde2ee" stroke-width="1.51"/><path d="M1201,622L1237,751L1522,691Z" fill="#c9e0ee" stroke="#c9e0ee" stroke-width="1.51"/><path d="M1237,751L1271,836L1522,691Z" fill="#bbd9e9" stroke="#bbd9e9" stroke-width="1.51"/><path d="M1219,-95L1342,162L1522,27Z" fill="#d19e98" stroke="#d19e98" stroke-width="1.51"/><path d="M1322,-195L1219,-95L1522,27Z" fill="#c88a8a" stroke="#c88a8a" stroke-width="1.51"/><path d="M1219,-95L1163,107L1342,162Z" fill="#dfa9a0" stroke="#dfa9a0" stroke-width="1.51"/><path d="M1242,1098L1394,1207L1395,1016Z" fill="#7eadd2" stroke="#7eadd2" stroke-width="1.51"/><path d="M1271,836L1395,1016L1420,979Z" fill="#96c4de" stroke="#96c4de" stroke-width="1.51"/><path d="M1200,257L1395,483L1420,412Z" fill="#dcdada" stroke="#dcdada" stroke-width="1.51"/><path d="M1342,162L1200,257L1420,412Z" fill="#dfccc5" stroke="#dfccc5" stroke-width="1.51"/><path d="M1271,836L1242,1098L1395,1016Z" fill="#95c1dd" stroke="#95c1dd" stroke-width="1.51"/><path d="M1103,411L1201,622L1395,483Z" fill="#e4ebef" stroke="#e4ebef" stroke-width="1.51"/><path d="M1200,257L1103,411L1395,483Z" fill="#e8e1de" stroke="#e8e1de" stroke-width="1.51"/><path d="M1242,1098L1319,1323L1394,1207Z" fill="#7aa0cc" stroke="#7aa0cc" stroke-width="1.51"/><path d="M1142,-302L1322,-195L1348,-274Z" fill="#b07b80" stroke="#b07b80" stroke-width="1.51"/><path d="M1058,975L1242,1098L1271,836Z" fill="#a4c9e1" stroke="#a4c9e1" stroke-width="1.51"/><path d="M1163,107L1200,257L1342,162Z" fill="#e6c0b4" stroke="#e6c0b4" stroke-width="1.51"/><path d="M1242,1098L1017,1338L1319,1323Z" fill="#849ec8" stroke="#849ec8" stroke-width="1.51"/><path d="M1142,-302L1219,-95L1322,-195Z" fill="#c38384" stroke="#c38384" stroke-width="1.51"/><path d="M1054,1041L1017,1338L1242,1098Z" fill="#93b0d4" stroke="#93b0d4" stroke-width="1.51"/><path d="M1058,975L1054,1041L1242,1098Z" fill="#9cc1dc" stroke="#9cc1dc" stroke-width="1.51"/><path d="M1237,751L1058,975L1271,836Z" fill="#bad9e9" stroke="#bad9e9" stroke-width="1.51"/><path d="M1103,411L1038,461L1201,622Z" fill="#edefef" stroke="#edefef" stroke-width="1.51"/><path d="M1019,55L1163,107L1219,-95Z" fill="#e3a69c" stroke="#e3a69c" stroke-width="1.51"/><path d="M979,698L1058,975L1237,751Z" fill="#c9e0ed" stroke="#c9e0ed" stroke-width="1.51"/><path d="M1201,622L979,698L1237,751Z" fill="#dae9f2" stroke="#dae9f2" stroke-width="1.51"/><path d="M1163,107L1056,232L1200,257Z" fill="#eec8b9" stroke="#eec8b9" stroke-width="1.51"/><path d="M1142,-302L1019,55L1219,-95Z" fill="#d8908c" stroke="#d8908c" stroke-width="1.51"/><path d="M823,-268L1019,55L1142,-302Z" fill="#d68d88" stroke="#d68d88" stroke-width="1.51"/><path d="M1056,232L1103,411L1200,257Z" fill="#f0d9cf" stroke="#f0d9cf" stroke-width="1.51"/><path d="M1038,461L948,579L1201,622Z" fill="#eff3f5" stroke="#eff3f5" stroke-width="1.51"/><path d="M948,579L979,698L1201,622Z" fill="#e7eff4" stroke="#e7eff4" stroke-width="1.51"/><path d="M125,1322L-163,1351L408,1369Z" fill="#854c60" stroke="#854c60" stroke-width="1.51"/><path d="M823,-268L954,57L1019,55Z" fill="#e89e93" stroke="#e89e93" stroke-width="1.51"/><path d="M1019,55L1056,232L1163,107Z" fill="#eebdaf" stroke="#eebdaf" stroke-width="1.51"/><path d="M873,1262L1017,1338L1054,1041Z" fill="#98acd2" stroke="#98acd2" stroke-width="1.51"/><path d="M823,-268L755,-166L954,57Z" fill="#e18d82" stroke="#e18d82" stroke-width="1.51"/><path d="M885,291L1038,461L1056,232Z" fill="#f8e1d6" stroke="#f8e1d6" stroke-width="1.51"/><path d="M979,698L933,984L1058,975Z" fill="#c3dcea" stroke="#c3dcea" stroke-width="1.51"/><path d="M1056,232L1038,461L1103,411Z" fill="#f4e6dd" stroke="#f4e6dd" stroke-width="1.51"/><path d="M755,-166L757,-25L954,57Z" fill="#e8998a" stroke="#e8998a" stroke-width="1.51"/><path d="M948,579L944,679L979,698Z" fill="#ebf1f4" stroke="#ebf1f4" stroke-width="1.51"/><path d="M873,1262L648,1384L1017,1338Z" fill="#8f92af" stroke="#8f92af" stroke-width="1.51"/><path d="M954,57L911,146L1019,55Z" fill="#f2b8a8" stroke="#f2b8a8" stroke-width="1.51"/><path d="M933,984L873,1262L1054,1041Z" fill="#a2bdda" stroke="#a2bdda" stroke-width="1.51"/><path d="M1019,55L911,146L1056,232Z" fill="#f4c2b2" stroke="#f4c2b2" stroke-width="1.51"/><path d="M933,984L1054,1041L1058,975Z" fill="#abcae1" stroke="#abcae1" stroke-width="1.51"/><path d="M911,146L885,291L1056,232Z" fill="#fad1c0" stroke="#fad1c0" stroke-width="1.51"/><path d="M774,1057L873,1262L933,984Z" fill="#a5b8d1" stroke="#a5b8d1" stroke-width="1.51"/><path d="M944,679L728,858L979,698Z" fill="#e0e7eb" stroke="#e0e7eb" stroke-width="1.51"/><path d="M728,858L933,984L979,698Z" fill="#cedde5" stroke="#cedde5" stroke-width="1.51"/><path d="M885,291L948,579L1038,461Z" fill="#f9efe9" stroke="#f9efe9" stroke-width="1.51"/><path d="M885,291L616,400L948,579Z" fill="#fce6d9" stroke="#fce6d9" stroke-width="1.51"/><path d="M616,400L598,471L948,579Z" fill="#fce6d9" stroke="#fce6d9" stroke-width="1.51"/><path d="M757,-25L911,146L954,57Z" fill="#f1ae9c" stroke="#f1ae9c" stroke-width="1.51"/><path d="M608,746L944,679L948,579Z" fill="#eceae9" stroke="#eceae9" stroke-width="1.51"/><path d="M598,471L608,746L948,579Z" fill="#f4e8e0" stroke="#f4e8e0" stroke-width="1.51"/><path d="M608,746L728,858L944,679Z" fill="#dfdfdf" stroke="#dfdfdf" stroke-width="1.51"/><path d="M728,858L774,1057L933,984Z" fill="#bac9d7" stroke="#bac9d7" stroke-width="1.51"/><path d="M624,135L885,291L911,146Z" fill="#f9c4ad" stroke="#f9c4ad" stroke-width="1.51"/><path d="M757,-25L624,135L911,146Z" fill="#f2ad98" stroke="#f2ad98" stroke-width="1.51"/><path d="M624,135L616,400L885,291Z" fill="#fbcdb5" stroke="#fbcdb5" stroke-width="1.51"/><path d="M774,1057L590,1131L873,1262Z" fill="#a4abc4" stroke="#a4abc4" stroke-width="1.51"/><path d="M590,1131L648,1384L873,1262Z" fill="#9b98b4" stroke="#9b98b4" stroke-width="1.51"/><path d="M446,-228L755,-166L823,-268Z" fill="#cb796f" stroke="#cb796f" stroke-width="1.51"/><path d="M61,-222L365,-203L446,-228Z" fill="#bb4e45" stroke="#bb4e45" stroke-width="1.51"/><path d="M446,-228L551,-106L755,-166Z" fill="#d57566" stroke="#d57566" stroke-width="1.51"/><path d="M755,-166L551,-106L757,-25Z" fill="#e28979" stroke="#e28979" stroke-width="1.51"/><path d="M728,858L590,1131L774,1057Z" fill="#b3bcc9" stroke="#b3bcc9" stroke-width="1.51"/><path d="M508,223L616,400L624,135Z" fill="#f9bda1" stroke="#f9bda1" stroke-width="1.51"/><path d="M428,955L590,1131L728,858Z" fill="#bbb6bc" stroke="#bbb6bc" stroke-width="1.51"/><path d="M551,-106L624,135L757,-25Z" fill="#ea957f" stroke="#ea957f" stroke-width="1.51"/><path d="M598,471L463,586L608,746Z" fill="#f5d8cb" stroke="#f5d8cb" stroke-width="1.51"/><path d="M608,746L428,955L728,858Z" fill="#d2c8c6" stroke="#d2c8c6" stroke-width="1.51"/><path d="M419,791L428,955L608,746Z" fill="#d6c1b9" stroke="#d6c1b9" stroke-width="1.51"/><path d="M508,223L488,361L616,400Z" fill="#fbc4aa" stroke="#fbc4aa" stroke-width="1.51"/><path d="M590,1131L408,1369L648,1384Z" fill="#988398" stroke="#988398" stroke-width="1.51"/><path d="M297,4L377,189L551,-106Z" fill="#e58166" stroke="#e58166" stroke-width="1.51"/><path d="M428,955L393,1033L590,1131Z" fill="#b1a3aa" stroke="#b1a3aa" stroke-width="1.51"/><path d="M551,-106L377,189L624,135Z" fill="#ed9579" stroke="#ed9579" stroke-width="1.51"/><path d="M377,189L508,223L624,135Z" fill="#f5aa89" stroke="#f5aa89" stroke-width="1.51"/><path d="M338,1321L408,1369L590,1131Z" fill="#9b7e90" stroke="#9b7e90" stroke-width="1.51"/><path d="M463,586L419,791L608,746Z" fill="#e9ccc1" stroke="#e9ccc1" stroke-width="1.51"/><path d="M488,361L598,471L616,400Z" fill="#fcd1bc" stroke="#fcd1bc" stroke-width="1.51"/><path d="M393,1033L289,1137L590,1131Z" fill="#ac95a0" stroke="#ac95a0" stroke-width="1.51"/><path d="M289,1137L338,1321L590,1131Z" fill="#a48598" stroke="#a48598" stroke-width="1.51"/><path d="M488,361L463,586L598,471Z" fill="#fbd1bd" stroke="#fbd1bd" stroke-width="1.51"/><path d="M377,737L419,791L463,586Z" fill="#e9c5b7" stroke="#e9c5b7" stroke-width="1.51"/><path d="M446,-228L365,-203L551,-106Z" fill="#cd6656" stroke="#cd6656" stroke-width="1.51"/><path d="M365,-203L297,4L551,-106Z" fill="#d86b57" stroke="#d86b57" stroke-width="1.51"/><path d="M213,454L463,586L488,361Z" fill="#f8c3ad" stroke="#f8c3ad" stroke-width="1.51"/><path d="M377,189L488,361L508,223Z" fill="#f7b292" stroke="#f7b292" stroke-width="1.51"/><path d="M377,189L251,283L488,361Z" fill="#f4ab8c" stroke="#f4ab8c" stroke-width="1.51"/><path d="M251,283L213,454L488,361Z" fill="#f5b297" stroke="#f5b297" stroke-width="1.51"/><path d="M338,1321L125,1322L408,1369Z" fill="#8d6072" stroke="#8d6072" stroke-width="1.51"/><path d="M213,454L377,737L463,586Z" fill="#f1c1b2" stroke="#f1c1b2" stroke-width="1.51"/><path d="M419,791L223,900L428,955Z" fill="#cbada8" stroke="#cbada8" stroke-width="1.51"/><path d="M223,900L393,1033L428,955Z" fill="#bda0a1" stroke="#bda0a1" stroke-width="1.51"/><path d="M213,454L113,733L377,737Z" fill="#e8b0a4" stroke="#e8b0a4" stroke-width="1.51"/><path d="M377,737L223,900L419,791Z" fill="#d6b2aa" stroke="#d6b2aa" stroke-width="1.51"/><path d="M173,1061L289,1137L393,1033Z" fill="#a98893" stroke="#a98893" stroke-width="1.51"/><path d="M223,900L173,1061L393,1033Z" fill="#b49196" stroke="#b49196" stroke-width="1.51"/><path d="M103,-36L297,4L365,-203Z" fill="#d15b4b" stroke="#d15b4b" stroke-width="1.51"/><path d="M113,733L223,900L377,737Z" fill="#d5a6a0" stroke="#d5a6a0" stroke-width="1.51"/><path d="M297,4L251,283L377,189Z" fill="#eb8e6f" stroke="#eb8e6f" stroke-width="1.51"/><path d="M61,-222L103,-36L365,-203Z" fill="#c3423c" stroke="#c3423c" stroke-width="1.51"/><path d="M116,470L113,733L213,454Z" fill="#ecaa9d" stroke="#ecaa9d" stroke-width="1.51"/><path d="M29,93L251,283L297,4Z" fill="#e1795f" stroke="#e1795f" stroke-width="1.51"/><path d="M289,1137L125,1322L338,1321Z" fill="#97697f" stroke="#97697f" stroke-width="1.51"/><path d="M142,1005L173,1061L223,900Z" fill="#b2888d" stroke="#b2888d" stroke-width="1.51"/><path d="M173,1061L125,1322L289,1137Z" fill="#9e7084" stroke="#9e7084" stroke-width="1.51"/><path d="M103,-36L29,93L297,4Z" fill="#d55d4b" stroke="#d55d4b" stroke-width="1.51"/><path d="M67,373L213,454L251,283Z" fill="#eea089" stroke="#eea089" stroke-width="1.51"/><path d="M29,93L67,373L251,283Z" fill="#e6866d" stroke="#e6866d" stroke-width="1.51"/><path d="M-14,612L113,733L116,470Z" fill="#e39f96" stroke="#e39f96" stroke-width="1.51"/><path d="M67,373L116,470L213,454Z" fill="#eca08e" stroke="#eca08e" stroke-width="1.51"/><path d="M113,733L142,1005L223,900Z" fill="#c49593" stroke="#c49593" stroke-width="1.51"/><path d="M-326,-197L-84,-153L61,-222Z" fill="#a51429" stroke="#a51429" stroke-width="1.51"/><path d="M29,93L-42,114L67,373Z" fill="#dc735c" stroke="#dc735c" stroke-width="1.51"/><path d="M113,733L-96,845L142,1005Z" fill="#c28c8c" stroke="#c28c8c" stroke-width="1.51"/><path d="M142,1005L-106,1061L173,1061Z" fill="#a47581" stroke="#a47581" stroke-width="1.51"/><path d="M-106,1061L125,1322L173,1061Z" fill="#9a667a" stroke="#9a667a" stroke-width="1.51"/><path d="M61,-222L-29,-120L103,-36Z" fill="#be3536" stroke="#be3536" stroke-width="1.51"/><path d="M-106,1061L-163,1351L125,1322Z" fill="#8b4c6a" stroke="#8b4c6a" stroke-width="1.51"/><path d="M-96,845L-106,1061L142,1005Z" fill="#ac777f" stroke="#ac777f" stroke-width="1.51"/><path d="M67,373L-14,612L116,470Z" fill="#e99d8f" stroke="#e99d8f" stroke-width="1.51"/><path d="M-14,612L-96,845L113,733Z" fill="#d3928e" stroke="#d3928e" stroke-width="1.51"/><path d="M-153,397L-14,612L67,373Z" fill="#e39186" stroke="#e39186" stroke-width="1.51"/><path d="M-42,114L-153,397L67,373Z" fill="#de7d6b" stroke="#de7d6b" stroke-width="1.51"/><path d="M-29,-120L29,93L103,-36Z" fill="#c9493f" stroke="#c9493f" stroke-width="1.51"/><path d="M-159,771L-96,845L-14,612Z" fill="#cc8787" stroke="#cc8787" stroke-width="1.51"/><path d="M-29,-120L-42,114L29,93Z" fill="#ca4d42" stroke="#ca4d42" stroke-width="1.51"/><path d="M-84,-153L-29,-120L61,-222Z" fill="#b32730" stroke="#b32730" stroke-width="1.51"/><path d="M-188,-13L-42,114L-29,-120Z" fill="#c23c39" stroke="#c23c39" stroke-width="1.51"/><path d="M-271,1168L-163,1351L-106,1061Z" fill="#824b69" stroke="#824b69" stroke-width="1.51"/><path d="M-247,137L-153,397L-42,114Z" fill="#cf6756" stroke="#cf6756" stroke-width="1.51"/><path d="M-84,-153L-188,-13L-29,-120Z" fill="#b8272f" stroke="#b8272f" stroke-width="1.51"/><path d="M-153,397L-274,614L-14,612Z" fill="#d88e89" stroke="#d88e89" stroke-width="1.51"/><path d="M-274,614L-159,771L-14,612Z" fill="#cd8887" stroke="#cd8887" stroke-width="1.51"/><path d="M-204,858L-106,1061L-96,845Z" fill="#ab737c" stroke="#ab737c" stroke-width="1.51"/><path d="M-188,-13L-247,137L-42,114Z" fill="#c14a42" stroke="#c14a42" stroke-width="1.51"/><path d="M-326,-197L-188,-13L-84,-153Z" fill="#a61b2b" stroke="#a61b2b" stroke-width="1.51"/><path d="M-271,1168L-302,1223L-163,1351Z" fill="#723f60" stroke="#723f60" stroke-width="1.51"/><path d="M-247,137L-333,389L-153,397Z" fill="#c57065" stroke="#c57065" stroke-width="1.51"/><path d="M-159,771L-204,858L-96,845Z" fill="#b77c81" stroke="#b77c81" stroke-width="1.51"/><path d="M-204,858L-271,1168L-106,1061Z" fill="#8f6173" stroke="#8f6173" stroke-width="1.51"/><path d="M-242,800L-204,858L-159,771Z" fill="#b17a80" stroke="#b17a80" stroke-width="1.51"/><path d="M-274,614L-242,800L-159,771Z" fill="#ba8083" stroke="#ba8083" stroke-width="1.51"/><path d="M-333,389L-274,614L-153,397Z" fill="#c7817c" stroke="#c7817c" stroke-width="1.51"/><path d="M-242,800L-271,1168L-204,858Z" fill="#976a77" stroke="#976a77" stroke-width="1.51"/><path d="M-326,-197L-247,137L-188,-13Z" fill="#a93033" stroke="#a93033" stroke-width="1.51"/><path d="M-302,1223L-271,1168L-242,800Z" fill="#7e576e" stroke="#7e576e" stroke-width="1.51"/><path d="M-274,614L-302,1223L-242,800Z" fill="#9c707a" stroke="#9c707a" stroke-width="1.51"/><path d="M-326,-197L-333,389L-247,137Z" fill="#ae4942" stroke="#ae4942" stroke-width="1.51"/><path d="M-333,389L-302,1223L-274,614Z" fill="#ab7980" stroke="#ab7980" stroke-width="1.51"/></svg>